<?xml version="1.0" ?><!DOCTYPE svg  PUBLIC '-//W3C//DTD SVG 1.1//EN'  'http://www.w3.org/Graphics/SVG/1.1/DTD/svg11.dtd'><svg enable_background="new 0 0 1000 495" height="495px" style="stroke-linejoin: round; stroke:#000; fill: none;" version="1.1" viewBox="0 0 1000 495" width="1000px" xmlns="http://www.w3.org/2000/svg" xmlns:xlink="http://www.w3.org/1999/xlink"><defs><style type="text/css"><![CDATA[path { fill-rule: evenodd; }]]></style></defs><metadata><views><view h="495.031942672" padding="0" w="1000"><proj id="laea" lat0="48.4992523193" lon0="19.4240320579"/><bbox h="23.03" w="46.62" x="978.78" y="986.36"/></view></views></metadata><g class="" id="region"><path d="M448.2,180.0L448.1,180.1L445.3,183.2L444.8,183.6L442.4,185.7L441.8,186.2L440.7,186.8L434.4,195.8L430.2,196.9L425.7,195.5L426.6,189.9L423.4,185.1L416.9,188.3L397.2,193.1L395.5,192.9L395.3,192.8L394.9,192.6L390.8,190.7L389.5,189.9L386.7,191.0L386.5,191.2L386.1,191.8L383.8,193.8L379.0,202.6L382.6,214.0L380.7,227.6L380.6,227.7L380.0,227.7L362.2,225.3L360.3,221.4L355.4,222.4L348.8,226.9L348.8,226.9L348.8,227.0L348.7,228.6L342.6,240.9L335.6,246.3L332.0,256.5L328.3,258.0L319.6,254.8L317.2,256.5L316.9,257.1L316.8,257.3L313.0,265.0L307.6,273.1L301.2,272.7L291.9,273.4L290.8,274.7L290.7,274.4L290.7,274.6L289.4,276.5L288.0,277.8L287.3,279.1L287.1,279.3L287.1,279.6L291.3,286.1L288.6,289.0L295.6,289.0L297.6,292.1L296.2,297.9L298.4,298.5L296.8,303.0L292.1,308.4L303.4,317.0L302.5,327.1L297.4,336.5L296.7,337.0L296.8,337.1L301.2,336.8L302.3,333.9L318.8,331.7L326.9,319.9L330.2,316.4L335.5,316.5L335.8,316.6L336.2,316.8L342.4,324.2L349.9,339.9L352.6,344.1L352.6,344.6L352.6,344.6L349.9,349.1L349.3,353.9L346.4,354.9L344.3,363.5L348.1,369.9L343.8,377.1L356.9,382.8L375.4,379.3L387.8,371.9L387.9,371.9L387.9,371.9L389.5,391.4L383.1,399.8L382.6,403.1L384.1,403.3L393.9,406.1L404.1,403.6L407.5,405.4L418.6,406.7L420.4,408.2L441.2,399.2L448.8,399.4L449.9,400.6L456.1,399.3L456.8,397.8L467.4,394.0L468.0,386.7L470.9,381.4L470.1,377.7L473.0,374.2L475.3,368.2L475.9,368.2L476.3,368.2L482.5,366.6L491.3,357.4L497.7,359.7L505.1,370.1L509.8,366.6L514.9,367.7L522.1,374.0L518.8,381.0L524.4,378.7L528.4,380.3L531.0,376.8L536.0,379.9L536.8,379.9L536.9,379.9L541.0,384.7L540.1,390.0L543.9,389.4L552.1,379.6L553.7,380.1L561.7,376.9L564.2,378.8L569.0,372.1L570.9,371.8L579.6,364.4L580.6,355.4L591.6,356.3L598.7,348.2L607.0,353.4L611.0,352.5L613.9,349.5L617.7,341.9L622.4,336.6L621.7,335.4L630.0,315.4L629.2,312.2L638.2,302.7L638.1,302.3L637.9,301.4L638.0,300.1L639.8,299.1L642.1,296.5L642.2,296.1L640.7,294.0L630.6,292.8L616.4,294.6L613.0,291.4L614.0,289.0L611.6,284.8L612.0,280.0L617.4,266.3L613.9,260.2L606.4,257.5L606.6,247.8L597.9,236.5L586.7,228.8L585.3,226.6L584.8,220.2L587.3,214.3L587.1,212.4L587.2,212.3L591.5,200.9L593.0,195.4L596.9,192.2L597.6,190.4L597.4,189.9L585.1,182.9L580.8,187.7L568.6,186.0L561.6,182.7L553.9,180.5L553.8,180.4L553.7,180.3L549.3,177.3L546.7,179.5L529.0,180.3L521.6,179.8L512.5,184.4L498.0,183.3L491.4,177.6L485.2,175.2L451.9,178.3L448.2,180.1L448.2,180.0Z " data-engtype-1="Region" data-id-0="205" data-id-1="1" data-iso="SVK" data-name-0="Slovakia" data-name-1="Banskobystrický" data-nl-name-1="" data-type-1="Kraj" data-varname-1="Banská Bystrica"/><path d="M22.8,273.0L21.4,278.2L17.6,280.8L15.7,285.4L11.4,286.1L11.1,290.1L4.3,297.0L6.3,305.2L2.0,318.1L2.8,323.5L7.7,324.1L7.0,326.2L13.2,330.4L9.8,335.8L13.3,338.8L15.4,343.9L20.1,344.1L20.7,346.8L20.8,347.0L20.5,348.1L20.1,355.4L23.9,365.1L24.0,371.3L32.3,378.9L38.5,379.5L38.8,380.2L39.2,381.0L42.1,387.0L43.2,399.8L39.9,402.5L43.0,403.7L39.4,408.6L43.9,411.8L47.8,409.3L55.6,415.7L64.6,412.8L67.5,413.5L68.5,413.4L68.7,413.4L69.1,413.4L69.5,413.3L70.6,413.1L71.0,413.6L78.1,407.7L76.9,404.5L83.4,398.1L81.3,386.7L93.4,384.1L93.6,377.6L103.2,381.2L108.9,380.6L109.0,380.6L109.0,380.6L118.8,372.8L118.1,366.7L120.0,363.7L111.4,356.7L112.1,352.5L114.6,350.6L115.8,346.2L115.8,346.0L115.6,345.5L114.8,343.8L113.2,341.3L111.5,337.6L111.2,337.4L109.5,336.9L107.9,336.1L111.2,323.2L106.1,321.7L102.6,312.3L95.7,301.4L85.5,298.5L85.2,298.4L84.0,297.5L82.4,295.2L82.1,292.0L90.6,284.9L90.7,284.7L90.7,284.7L77.2,272.3L85.3,264.8L92.8,259.4L95.3,256.3L93.8,248.6L92.2,247.5L81.3,255.1L72.7,264.2L72.7,265.9L60.5,269.5L50.4,270.9L43.6,270.2L36.3,265.7L37.3,268.9L30.7,269.4L23.1,272.1L22.8,273.0Z " data-engtype-1="Region" data-id-0="205" data-id-1="2" data-iso="SVK" data-name-0="Slovakia" data-name-1="Bratislavský" data-nl-name-1="" data-type-1="Kraj" data-varname-1="Bratislava"/><path d="M636.0,162.6L635.7,162.3L627.5,158.6L624.5,161.5L620.0,162.6L604.6,170.7L604.1,172.6L610.6,178.1L610.6,178.6L610.6,178.8L605.9,181.1L599.9,190.3L597.7,190.5L597.6,190.4L596.9,192.2L593.0,195.4L591.5,200.9L587.2,212.3L587.1,212.4L587.3,214.3L584.8,220.2L585.3,226.6L586.7,228.8L597.9,236.5L606.6,247.8L606.4,257.5L613.9,260.2L617.4,266.3L612.0,280.0L611.6,284.8L614.0,289.0L613.0,291.4L616.4,294.6L630.6,292.8L640.7,294.0L642.2,296.1L642.8,294.4L643.9,293.2L644.8,281.8L649.9,283.6L651.6,278.3L659.2,280.7L666.6,276.1L674.6,272.4L675.9,273.7L685.9,269.5L696.6,269.8L696.6,269.9L697.1,270.1L702.7,266.7L704.4,267.5L707.6,275.3L720.1,278.8L723.9,282.0L730.2,281.0L742.8,281.7L748.7,285.3L748.8,288.5L753.3,290.4L764.7,280.8L773.4,276.9L774.8,278.6L784.6,280.2L786.9,273.5L794.3,271.4L804.6,270.4L805.3,265.9L819.8,271.7L822.2,277.1L822.5,277.6L823.0,278.5L825.3,282.4L832.8,284.8L838.5,282.9L842.4,300.0L851.1,314.3L852.6,314.7L860.5,325.4L867.7,327.5L871.8,327.2L879.5,328.6L880.4,320.2L888.7,318.9L888.6,320.3L895.5,320.4L895.3,317.8L902.4,315.2L908.5,315.1L910.4,312.7L916.3,315.9L920.3,313.5L924.7,315.4L932.0,314.0L932.2,297.8L932.6,296.4L933.2,294.5L934.5,280.0L935.0,272.0L935.9,267.1L935.8,266.5L938.8,255.7L946.8,250.9L950.1,242.3L956.1,237.5L957.1,234.6L966.0,229.8L968.2,219.0L966.7,215.4L962.9,214.1L963.8,209.3L969.8,201.2L968.6,189.5L969.5,184.7L969.5,184.4L966.5,182.7L949.2,185.9L949.3,184.5L938.9,169.7L938.0,170.2L936.9,171.0L935.5,172.5L933.9,174.6L931.3,177.4L931.0,177.7L931.0,177.6L926.2,182.2L926.4,188.7L907.6,189.3L897.1,191.1L890.6,184.2L888.2,183.0L868.5,179.2L868.4,179.3L868.4,179.3L866.7,194.8L869.3,203.4L867.8,206.1L862.9,207.7L862.1,211.1L862.2,211.4L861.6,211.8L854.3,214.5L849.1,214.7L844.1,211.9L838.8,211.7L825.9,209.5L825.0,209.3L824.9,209.3L823.5,207.7L821.1,203.9L813.9,193.2L813.9,192.7L813.1,192.6L804.4,187.1L800.8,187.2L794.8,189.9L795.1,194.9L782.9,200.5L777.0,202.4L772.6,201.6L772.2,197.0L775.2,192.9L772.2,190.3L761.6,187.7L759.9,184.5L733.5,181.1L733.4,180.9L733.3,180.8L727.4,172.9L717.6,170.1L712.2,167.3L711.4,167.0L710.6,166.7L708.5,165.4L707.6,165.1L705.8,165.1L705.6,164.7L705.5,164.8L688.4,156.8L686.9,156.9L686.8,164.4L678.8,165.3L667.1,169.5L660.1,167.2L657.3,163.9L651.7,163.0L642.7,157.3L637.0,158.1L637.5,165.9L636.1,162.8L636.0,162.6Z " data-engtype-1="Region" data-id-0="205" data-id-1="3" data-iso="SVK" data-name-0="Slovakia" data-name-1="Košický" data-nl-name-1="" data-type-1="Kraj" data-varname-1="Košice"/><path d="M294.5,486.8L294.6,486.8L314.6,486.7L331.3,478.4L332.9,473.4L341.4,471.2L353.1,471.8L348.6,463.3L343.3,458.6L339.5,457.9L338.2,454.4L337.5,445.3L340.2,438.6L340.2,437.7L340.2,437.1L339.0,427.9L347.2,425.5L348.4,417.3L355.7,410.3L358.4,411.1L370.2,407.9L378.2,408.3L382.5,403.7L382.6,403.1L383.1,399.8L389.5,391.4L387.9,371.9L387.9,371.9L387.8,371.9L375.4,379.3L356.9,382.8L343.8,377.1L348.1,369.9L344.3,363.5L346.4,354.9L349.3,353.9L349.9,349.1L352.6,344.6L352.6,344.6L352.6,344.1L349.9,339.9L342.4,324.2L336.2,316.8L335.8,316.6L335.5,316.5L330.2,316.4L326.9,319.9L318.8,331.7L302.3,333.9L301.2,336.8L296.8,337.1L296.7,337.0L297.4,336.5L302.5,327.1L303.4,317.0L292.1,308.4L296.8,303.0L298.4,298.5L296.2,297.9L297.6,292.1L295.6,289.0L288.6,289.0L291.3,286.1L287.1,279.6L287.1,279.3L287.1,279.3L280.7,282.4L270.0,290.9L267.6,289.2L265.2,293.6L258.4,291.4L258.4,291.4L258.3,291.3L256.5,285.0L250.2,276.6L245.2,276.2L243.0,269.3L246.1,266.2L247.4,260.2L241.3,256.7L241.4,256.5L241.3,256.5L232.0,249.0L231.0,244.3L226.1,239.3L213.0,236.4L207.8,233.1L207.5,233.0L207.4,233.0L205.7,240.8L207.1,249.0L209.7,256.6L200.9,259.4L200.8,259.5L200.8,259.5L198.6,264.7L186.0,265.5L178.9,282.6L178.9,282.7L178.9,282.8L185.1,288.2L192.4,294.3L197.1,299.3L197.3,299.9L197.1,300.4L185.5,316.4L184.3,320.9L178.7,328.1L179.1,329.7L179.1,329.9L179.2,330.1L177.9,333.3L177.5,337.1L180.5,347.8L180.6,347.8L180.7,347.9L176.1,355.5L184.1,366.6L182.0,370.0L175.0,372.5L169.0,371.7L172.1,378.4L169.1,380.1L163.4,378.2L159.8,380.8L171.7,391.5L171.8,396.2L169.1,399.9L170.0,403.0L176.0,400.9L178.9,408.6L181.3,409.0L183.2,415.2L182.6,425.6L182.6,425.7L182.6,425.7L183.0,428.5L182.9,429.5L182.1,432.9L181.9,433.4L182.1,433.6L179.2,449.3L169.8,454.3L160.8,470.6L154.2,471.5L154.6,476.7L149.3,482.1L150.8,483.8L163.4,489.0L177.8,488.4L184.4,490.4L192.4,488.9L196.8,485.5L202.3,488.2L209.7,485.9L217.1,486.0L227.5,487.9L235.3,491.0L243.5,490.6L254.7,493.0L268.7,489.4L282.0,484.7L292.4,487.6L294.5,486.8Z " data-engtype-1="Region" data-id-0="205" data-id-1="4" data-iso="SVK" data-name-0="Slovakia" data-name-1="Nitriansky" data-nl-name-1="" data-type-1="Kraj" data-varname-1="Nitra"/><path d="M723.4,75.2L723.3,75.3L720.0,75.2L714.5,78.2L708.1,71.2L705.7,70.8L701.9,65.0L696.8,68.8L691.6,65.5L692.0,63.5L688.6,58.1L684.7,58.8L682.2,48.3L678.6,46.9L666.5,51.5L660.1,46.7L659.5,51.1L656.3,56.0L649.7,57.5L641.3,51.5L628.5,47.3L628.9,51.5L628.8,53.0L628.3,53.3L619.7,54.7L618.5,50.2L609.4,53.4L610.5,60.7L608.2,68.0L603.8,65.6L588.6,68.3L585.5,72.4L584.7,72.3L584.3,72.2L572.2,92.6L572.3,99.0L567.6,111.4L558.4,106.1L556.3,101.3L550.0,98.0L541.3,96.8L539.5,97.5L531.3,107.1L531.4,107.2L536.4,116.1L537.7,124.5L543.2,123.4L545.4,128.8L549.5,130.3L560.8,127.5L560.6,130.9L556.7,152.3L549.7,154.5L553.5,159.4L559.2,172.4L564.6,173.2L563.9,176.9L553.8,180.3L553.8,180.4L553.9,180.5L561.6,182.7L568.6,186.0L580.8,187.7L585.1,182.9L597.4,189.9L597.6,190.4L597.7,190.5L599.9,190.3L605.9,181.1L610.6,178.8L610.6,178.6L610.6,178.1L604.1,172.6L604.6,170.7L620.0,162.6L624.5,161.5L627.5,158.6L635.7,162.3L636.0,162.6L636.1,162.8L637.5,165.9L637.0,158.1L642.7,157.3L651.7,163.0L657.3,163.9L660.1,167.2L667.1,169.5L678.8,165.3L686.8,164.4L686.9,156.9L688.4,156.8L705.5,164.8L705.6,164.7L705.8,165.1L707.6,165.1L708.5,165.4L710.6,166.7L711.4,167.0L712.2,167.3L717.6,170.1L727.4,172.9L733.3,180.8L733.4,180.9L733.5,181.1L759.9,184.5L761.6,187.7L772.2,190.3L775.2,192.9L772.2,197.0L772.6,201.6L777.0,202.4L782.9,200.5L795.1,194.9L794.8,189.9L800.8,187.2L804.4,187.1L813.1,192.6L813.9,192.7L813.9,193.2L821.1,203.9L823.5,207.7L824.9,209.3L825.0,209.3L825.9,209.5L838.8,211.7L844.1,211.9L849.1,214.7L854.3,214.5L861.6,211.8L862.2,211.4L862.1,211.1L862.9,207.7L867.8,206.1L869.3,203.4L866.7,194.8L868.4,179.3L868.4,179.3L868.5,179.2L888.2,183.0L890.6,184.2L897.1,191.1L907.6,189.3L926.4,188.7L926.2,182.2L931.0,177.6L931.0,177.7L931.3,177.4L933.9,174.6L935.5,172.5L936.9,171.0L938.0,170.2L938.9,169.7L949.3,184.5L949.2,185.9L966.5,182.7L969.5,184.4L969.5,183.1L974.3,179.2L975.5,167.9L983.1,151.2L987.2,148.2L992.3,149.5L995.0,143.1L995.6,132.2L997.8,125.8L996.6,124.4L988.7,124.4L982.4,122.1L972.9,122.1L965.8,111.4L957.5,113.8L949.2,111.5L941.0,111.5L942.1,104.3L937.4,103.2L935.0,104.4L927.9,102.0L927.9,102.0L926.7,102.0L925.5,100.8L925.5,98.4L920.8,98.5L919.8,98.5L919.6,98.5L907.8,93.7L906.5,81.8L905.3,77.1L900.6,72.3L895.8,64.0L887.5,60.5L887.5,59.3L873.3,52.2L865.0,52.2L862.7,59.4L862.2,59.4L861.5,59.4L859.6,58.2L859.1,58.2L859.1,57.6L859.1,57.0L855.5,49.9L850.8,46.2L850.8,43.9L838.9,42.8L838.9,39.7L835.3,35.7L829.5,39.3L817.7,40.5L817.7,44.1L810.4,41.1L802.9,45.4L802.7,45.4L802.0,45.5L795.3,40.4L789.3,39.6L772.2,34.3L767.6,40.6L758.7,50.0L748.0,41.3L744.4,44.1L742.3,43.0L734.2,46.3L735.5,49.9L743.4,55.8L743.7,57.2L737.4,60.0L734.2,59.7L728.1,65.9L724.4,74.8L723.4,75.2Z " data-engtype-1="Region" data-id-0="205" data-id-1="5" data-iso="SVK" data-name-0="Slovakia" data-name-1="Prešov" data-nl-name-1="" data-type-1="Kraj" data-varname-1=""/><path d="M267.0,74.0L263.6,75.9L251.1,79.3L249.6,79.6L245.7,80.4L240.5,82.6L237.1,86.0L235.5,90.8L228.6,118.0L228.4,118.6L228.0,120.2L229.5,124.1L227.3,136.4L224.2,142.7L223.1,144.2L222.6,144.6L211.1,149.7L195.4,152.1L189.5,159.9L187.6,173.9L182.1,176.4L178.8,176.4L178.2,176.4L169.6,177.8L166.7,179.8L155.1,193.3L142.8,193.6L140.3,194.4L139.9,194.5L137.1,197.8L123.2,205.9L120.8,205.1L114.8,196.5L108.4,198.0L105.1,200.1L103.2,200.4L100.4,205.6L96.0,208.9L94.8,210.6L94.8,211.4L94.8,211.6L111.9,218.5L115.3,222.4L112.0,228.4L110.9,234.4L112.8,238.0L124.1,253.1L124.1,253.2L124.2,253.2L130.2,251.4L132.7,251.1L133.6,250.7L133.9,250.6L134.0,250.6L139.2,245.5L141.4,245.1L154.1,242.0L154.1,242.0L154.2,242.0L164.8,249.9L172.4,250.8L176.7,248.8L178.2,252.6L185.2,253.8L200.7,259.4L200.8,259.5L200.9,259.4L209.7,256.6L207.1,249.0L205.7,240.8L207.4,233.0L207.5,233.0L207.8,233.1L213.0,236.4L226.1,239.3L231.0,244.3L232.0,249.0L241.3,256.5L241.4,256.5L241.3,256.7L247.4,260.2L246.1,266.2L243.0,269.3L245.2,276.2L250.2,276.6L256.5,285.0L258.3,291.3L258.4,291.4L258.4,291.4L265.2,293.6L267.6,289.2L270.0,290.9L280.7,282.4L287.1,279.3L287.1,279.3L287.3,279.1L288.0,277.8L289.4,276.5L290.7,274.6L290.7,274.4L290.8,274.7L291.9,273.4L301.2,272.7L307.6,273.1L313.0,265.0L316.8,257.3L316.9,257.1L317.2,256.5L319.6,254.8L328.3,258.0L332.0,256.5L335.6,246.3L342.6,240.9L348.7,228.6L348.8,227.0L348.8,226.9L348.6,226.9L340.2,214.1L339.8,212.4L327.8,198.7L326.5,195.2L327.9,189.3L326.3,185.4L329.6,177.4L329.8,176.6L330.2,175.9L330.4,174.0L329.6,173.5L317.1,170.0L316.5,170.0L316.2,170.0L313.9,169.9L292.9,175.2L293.0,175.5L292.9,175.5L290.4,174.9L288.4,173.6L287.5,170.3L287.5,170.0L287.8,169.7L292.1,167.2L298.4,161.4L306.0,159.4L311.0,151.8L313.0,143.3L306.5,136.6L303.3,134.6L308.4,128.0L308.4,127.7L308.4,127.2L308.4,126.8L308.3,126.4L308.3,126.2L308.3,126.2L304.3,116.7L294.4,110.0L290.5,108.5L286.4,102.5L281.9,88.6L277.4,82.5L272.8,74.3L272.5,74.3L272.5,74.4L268.5,74.6L268.1,74.6L267.2,73.9L267.0,74.0Z " data-engtype-1="Region" data-id-0="205" data-id-1="6" data-iso="SVK" data-name-0="Slovakia" data-name-1="Trenciansky" data-nl-name-1="" data-type-1="Kraj" data-varname-1="Trenčín"/><path d="M28.5,235.0L27.8,235.6L24.4,249.2L20.8,253.2L21.8,261.5L20.7,262.8L22.4,271.5L23.1,272.1L30.7,269.4L37.3,268.9L36.3,265.7L43.6,270.2L50.4,270.9L60.5,269.5L72.7,265.9L72.7,264.2L81.3,255.1L92.2,247.5L93.8,248.6L95.3,256.3L92.8,259.4L85.3,264.8L77.2,272.3L90.7,284.7L90.7,284.7L90.6,284.9L82.1,292.0L82.4,295.2L84.0,297.5L85.2,298.4L85.5,298.5L95.7,301.4L102.6,312.3L106.1,321.7L111.2,323.2L107.9,336.1L109.5,336.9L111.2,337.4L111.5,337.6L113.2,341.3L114.8,343.8L115.6,345.5L115.8,346.0L115.8,346.2L114.6,350.6L112.1,352.5L111.4,356.7L120.0,363.7L118.1,366.7L118.8,372.8L109.0,380.6L109.0,380.6L108.9,380.6L103.2,381.2L93.6,377.6L93.4,384.1L81.3,386.7L83.4,398.1L76.9,404.5L78.1,407.7L71.0,413.6L71.4,414.2L72.6,418.1L77.4,419.4L82.0,418.9L88.3,421.3L91.7,426.4L101.8,437.7L105.8,447.5L107.8,449.7L116.7,454.7L118.7,454.7L122.4,460.5L125.9,468.4L131.0,466.7L135.8,469.4L148.5,481.1L149.3,482.1L154.6,476.7L154.2,471.5L160.8,470.6L169.8,454.3L179.2,449.3L182.1,433.6L181.9,433.4L182.1,432.9L182.9,429.5L183.0,428.5L182.6,425.7L182.6,425.7L182.6,425.6L183.2,415.2L181.3,409.0L178.9,408.6L176.0,400.9L170.0,403.0L169.1,399.9L171.8,396.2L171.7,391.5L159.8,380.8L163.4,378.2L169.1,380.1L172.1,378.4L169.0,371.7L175.0,372.5L182.0,370.0L184.1,366.6L176.1,355.5L180.7,347.9L180.6,347.8L180.5,347.8L177.5,337.1L177.9,333.3L179.2,330.1L179.1,329.9L179.1,329.7L178.7,328.1L184.3,320.9L185.5,316.4L197.1,300.4L197.3,299.9L197.1,299.3L192.4,294.3L185.1,288.2L178.9,282.8L178.9,282.7L178.9,282.6L186.0,265.5L198.6,264.7L200.8,259.5L200.8,259.5L200.7,259.4L185.2,253.8L178.2,252.6L176.7,248.8L172.4,250.8L164.8,249.9L154.2,242.0L154.1,242.0L154.1,242.0L141.4,245.1L139.2,245.5L134.0,250.6L133.9,250.6L133.6,250.7L132.7,251.1L130.2,251.4L124.2,253.2L124.1,253.2L124.1,253.1L112.8,238.0L110.9,234.4L112.0,228.4L115.3,222.4L111.9,218.5L94.8,211.6L94.8,211.4L94.8,210.6L96.0,208.9L100.4,205.6L103.2,200.4L101.4,200.8L96.9,200.2L73.0,186.8L68.9,185.5L56.2,194.5L52.2,199.4L49.7,207.3L37.7,218.3L35.6,225.1L32.8,228.3L33.0,232.2L28.8,234.7L28.5,235.0Z " data-engtype-1="Region" data-id-0="205" data-id-1="7" data-iso="SVK" data-name-0="Slovakia" data-name-1="Trnavský" data-nl-name-1="" data-type-1="Kraj" data-varname-1="Trnava"/><path d="M404.5,52.9L404.2,52.9L399.5,49.4L391.2,50.7L388.9,55.5L378.2,53.2L380.5,44.8L376.9,37.7L376.9,28.2L374.4,22.2L355.1,20.5L350.8,21.8L339.6,28.3L325.7,25.6L317.4,26.1L306.7,23.5L302.9,28.5L303.3,31.8L296.0,45.0L292.7,48.6L279.0,55.0L279.6,57.7L275.5,67.6L267.7,73.7L267.2,73.9L268.1,74.6L268.5,74.6L272.5,74.4L272.5,74.3L272.8,74.3L277.4,82.5L281.9,88.6L286.4,102.5L290.5,108.5L294.4,110.0L304.3,116.7L308.3,126.2L308.3,126.2L308.3,126.4L308.4,126.8L308.4,127.2L308.4,127.7L308.4,128.0L303.3,134.6L306.5,136.6L313.0,143.3L311.0,151.8L306.0,159.4L298.4,161.4L292.1,167.2L287.8,169.7L287.5,170.0L287.5,170.3L288.4,173.6L290.4,174.9L292.9,175.5L293.0,175.5L292.9,175.2L313.9,169.9L316.2,170.0L316.5,170.0L317.1,170.0L329.6,173.5L330.4,174.0L330.2,175.9L329.8,176.6L329.6,177.4L326.3,185.4L327.9,189.3L326.5,195.2L327.8,198.7L339.8,212.4L340.2,214.1L348.6,226.9L348.8,226.9L348.8,226.9L355.4,222.4L360.3,221.4L362.2,225.3L380.0,227.7L380.6,227.7L380.7,227.6L382.6,214.0L379.0,202.6L383.8,193.8L386.1,191.8L386.5,191.2L386.7,191.0L389.5,189.9L390.8,190.7L394.9,192.6L395.3,192.8L395.5,192.9L397.2,193.1L416.9,188.3L423.4,185.1L426.6,189.9L425.7,195.5L430.2,196.9L434.4,195.8L440.7,186.8L441.8,186.2L442.4,185.7L444.8,183.6L445.3,183.2L448.1,180.1L448.2,180.0L448.2,180.1L451.9,178.3L485.2,175.2L491.4,177.6L498.0,183.3L512.5,184.4L521.6,179.8L529.0,180.3L546.7,179.5L549.3,177.3L553.7,180.3L553.8,180.4L553.8,180.3L563.9,176.9L564.6,173.2L559.2,172.4L553.5,159.4L549.7,154.5L556.7,152.3L560.6,130.9L560.8,127.5L549.5,130.3L545.4,128.8L543.2,123.4L537.7,124.5L536.4,116.1L531.1,107.9L526.4,109.1L521.6,107.9L515.7,106.8L514.5,106.8L514.5,105.6L515.6,96.1L523.8,87.7L522.6,82.9L520.2,82.9L521.4,73.4L518.8,53.2L511.7,52.0L505.9,58.0L503.5,54.5L491.7,53.4L492.8,41.5L490.4,41.5L484.5,37.9L484.3,37.9L483.3,38.0L478.5,29.7L474.8,13.0L465.3,3.6L465.3,2.4L455.8,1.3L452.3,7.2L446.4,9.7L446.5,16.8L434.7,16.9L434.2,18.1L424.1,24.2L424.1,27.7L420.7,39.7L416.0,42.1L416.0,50.4L405.4,52.9L404.5,52.9Z " data-engtype-1="Region" data-id-0="205" data-id-1="8" data-iso="SVK" data-name-0="Slovakia" data-name-1="Žilinský" data-nl-name-1="" data-type-1="Kraj" data-varname-1="Žilina"/></g><g class="" id="district"><path d="M394.9,192.6L390.8,190.7L389.5,189.9L386.7,191.0L386.5,191.2L386.1,191.8L383.8,193.8L379.0,202.6L382.6,214.0L380.7,227.6L380.6,227.7L380.6,227.7L382.1,234.4L382.1,236.4L382.5,238.5L382.6,238.6L383.1,239.0L402.9,255.9L404.5,253.4L406.9,256.0L411.8,255.5L416.1,250.9L421.5,254.5L430.8,254.6L433.1,256.0L445.5,250.4L454.3,251.8L463.8,247.4L464.7,246.6L464.5,246.3L461.8,241.2L465.2,239.7L468.0,231.2L463.5,224.9L460.2,223.9L460.6,220.3L457.8,220.0L449.3,213.2L448.4,207.2L451.7,199.9L448.6,191.2L446.8,191.0L442.4,185.8L441.8,186.2L440.7,186.8L434.4,195.8L430.2,196.9L425.7,195.5L426.6,189.9L423.4,185.1L416.9,188.3L397.2,193.1L395.5,192.9L395.3,192.8L394.9,192.6Z " data-engtype-2="District" data-id-0="205" data-id-1="1" data-id-2="1" data-iso="SVK" data-name-0="Slovakia" data-name-1="Banskobystrický" data-name-2="Banská Bystrica" data-nl-name-2="" data-type-2="Okres" data-varname-2=""/><path d="M374.8,277.1L368.2,277.2L358.9,290.8L360.8,297.3L358.0,300.5L358.2,301.1L357.3,302.0L353.4,308.2L348.2,313.4L344.8,313.0L337.9,309.8L335.9,316.2L335.8,316.6L336.2,316.8L342.4,324.2L349.9,339.9L352.6,344.1L352.6,344.6L353.0,344.7L357.3,343.5L358.8,340.4L362.0,343.0L366.9,337.3L371.5,335.5L369.2,328.6L371.0,327.3L373.1,318.7L380.7,312.8L381.3,312.6L381.2,311.9L381.0,292.0L382.6,282.1L377.4,283.7L375.4,277.3L375.1,276.9L374.8,277.1Z " data-engtype-2="District" data-id-0="205" data-id-1="1" data-id-2="2" data-iso="SVK" data-name-0="Slovakia" data-name-1="Banskobystrický" data-name-2="Banská Štiavnica" data-nl-name-2="" data-type-2="Okres" data-varname-2=""/><path d="M448.1,180.1L445.3,183.2L444.8,183.6L442.4,185.7L441.8,186.2L442.4,185.8L446.8,191.0L448.6,191.2L451.7,199.9L448.4,207.2L449.3,213.2L457.8,220.0L460.6,220.3L460.2,223.9L463.5,224.9L468.0,231.2L465.2,239.7L461.8,241.2L464.5,246.3L464.7,246.6L465.3,247.2L465.9,248.1L466.3,248.7L466.6,249.7L466.8,250.2L467.2,250.0L476.3,249.8L484.0,251.1L490.0,254.1L491.6,256.7L497.9,258.8L498.3,259.0L498.9,258.6L504.0,255.0L507.1,253.5L510.7,252.0L511.6,251.7L511.1,251.3L509.0,248.0L509.4,244.3L513.9,242.4L514.4,239.8L520.8,236.2L525.0,228.2L529.4,222.7L531.8,222.6L533.5,217.7L533.9,216.1L533.9,215.7L534.8,213.9L543.8,214.1L549.0,212.9L557.1,207.7L562.5,207.7L563.5,209.6L567.5,207.8L569.5,211.7L586.1,212.5L587.1,212.4L587.2,212.3L591.5,200.9L593.0,195.4L596.9,192.2L597.6,190.4L597.4,189.9L585.1,182.9L580.8,187.7L568.6,186.0L561.6,182.7L553.9,180.5L553.8,180.4L553.7,180.3L549.3,177.3L546.7,179.5L529.0,180.3L521.6,179.8L512.5,184.4L498.0,183.3L491.4,177.6L485.2,175.2L451.9,178.3L448.2,180.1L448.2,180.0L448.1,180.1Z " data-engtype-2="District" data-id-0="205" data-id-1="1" data-id-2="3" data-iso="SVK" data-name-0="Slovakia" data-name-1="Banskobystrický" data-name-2="Brezno" data-nl-name-2="" data-type-2="Okres" data-varname-2=""/><path d="M466.0,250.5L460.9,253.1L455.1,262.7L448.8,259.7L439.2,264.0L437.5,267.1L444.6,272.3L443.6,273.6L447.2,278.4L435.8,272.0L432.8,272.0L431.2,281.9L429.2,284.4L431.2,288.1L429.4,291.5L422.9,292.9L426.1,299.9L428.5,300.3L428.8,305.4L437.6,309.2L441.5,314.5L442.7,320.8L442.9,321.3L443.5,321.7L444.8,321.9L448.4,319.2L448.9,318.9L448.9,318.7L444.9,304.0L447.4,303.0L448.2,297.5L445.7,294.4L454.0,294.8L467.3,281.3L468.7,277.3L475.0,277.4L480.7,280.3L481.7,280.5L482.2,280.5L490.0,283.4L492.9,277.4L492.7,273.9L498.5,271.6L502.5,272.1L504.4,266.6L504.2,262.3L499.6,259.8L498.3,259.0L497.9,258.8L491.6,256.7L490.0,254.1L484.0,251.1L476.3,249.8L467.2,250.0L466.8,250.2L466.0,250.5Z " data-engtype-2="District" data-id-0="205" data-id-1="1" data-id-2="4" data-iso="SVK" data-name-0="Slovakia" data-name-1="Banskobystrický" data-name-2="Detva" data-nl-name-2="" data-type-2="Okres" data-varname-2=""/><path d="M420.0,328.8L411.7,321.5L403.5,322.5L399.7,314.7L395.0,316.1L384.6,309.2L381.6,312.4L381.3,312.6L380.7,312.8L373.1,318.7L371.0,327.3L369.2,328.6L371.5,335.5L366.9,337.3L362.0,343.0L358.8,340.4L357.3,343.5L353.0,344.7L352.6,344.6L352.6,344.6L349.9,349.1L349.3,353.9L346.4,354.9L344.3,363.5L348.1,369.9L343.8,377.1L356.9,382.8L375.4,379.3L387.8,371.9L387.9,371.9L388.6,371.1L392.8,365.3L399.1,368.4L403.9,364.0L407.9,367.5L418.3,359.1L416.8,348.6L415.3,346.0L417.0,335.0L420.4,330.0L420.3,328.9L420.0,328.8Z " data-engtype-2="District" data-id-0="205" data-id-1="1" data-id-2="5" data-iso="SVK" data-name-0="Slovakia" data-name-1="Banskobystrický" data-name-2="Krupina" data-nl-name-2="" data-type-2="Okres" data-varname-2=""/><path d="M480.7,280.3L475.0,277.4L468.7,277.3L467.3,281.3L454.0,294.8L445.7,294.4L448.2,297.5L447.4,303.0L444.9,304.0L448.9,318.7L448.9,318.9L449.2,320.1L454.9,331.4L460.3,331.5L462.3,338.6L466.4,343.7L476.9,347.7L478.0,352.5L476.1,353.0L475.9,367.6L475.9,368.2L476.3,368.2L482.5,366.6L491.3,357.4L497.7,359.7L505.1,370.1L509.8,366.6L514.9,367.7L522.1,374.0L518.8,381.0L524.4,378.7L528.4,380.3L531.0,376.8L536.0,379.9L536.8,379.9L536.9,379.0L543.7,370.1L540.7,355.6L537.7,347.0L529.8,331.2L529.6,330.8L529.5,330.7L524.4,328.1L520.3,328.0L517.5,330.7L503.8,324.6L501.3,326.8L496.7,321.0L492.8,322.3L493.1,316.6L496.8,314.9L500.6,315.6L499.5,312.9L491.4,307.9L485.7,301.8L485.8,296.3L484.3,288.2L481.9,281.2L481.7,280.5L480.7,280.3Z " data-engtype-2="District" data-id-0="205" data-id-1="1" data-id-2="6" data-iso="SVK" data-name-0="Slovakia" data-name-1="Banskobystrický" data-name-2="Lucenec" data-nl-name-2="" data-type-2="Okres" data-varname-2=""/><path d="M510.7,252.0L507.1,253.5L504.0,255.0L498.9,258.6L498.3,259.0L499.6,259.8L504.2,262.3L504.4,266.6L502.5,272.1L498.5,271.6L492.7,273.9L492.9,277.4L490.0,283.4L482.2,280.5L481.7,280.5L481.9,281.2L484.3,288.2L485.8,296.3L485.7,301.8L491.4,307.9L499.5,312.9L500.6,315.6L496.8,314.9L493.1,316.6L492.8,322.3L496.7,321.0L501.3,326.8L503.8,324.6L517.5,330.7L520.3,328.0L524.4,328.1L529.5,330.7L529.6,330.8L530.3,330.7L532.0,326.5L528.5,323.4L528.6,316.7L537.7,318.9L541.9,315.6L541.9,308.5L538.9,305.0L538.3,297.7L535.3,291.9L528.3,283.5L524.1,283.4L530.0,278.0L533.4,270.3L524.5,259.9L512.0,251.7L511.6,251.7L510.7,252.0Z " data-engtype-2="District" data-id-0="205" data-id-1="1" data-id-2="7" data-iso="SVK" data-name-0="Slovakia" data-name-1="Banskobystrický" data-name-2="Poltár" data-nl-name-2="" data-type-2="Okres" data-varname-2=""/><path d="M586.1,212.5L569.5,211.7L567.5,207.8L563.5,209.6L562.5,207.7L557.1,207.7L549.0,212.9L543.8,214.1L534.8,213.9L533.9,215.7L533.9,216.1L535.7,217.3L541.4,221.2L544.3,221.5L549.3,234.7L554.1,237.8L553.2,240.6L555.9,250.1L560.8,255.0L563.6,260.3L574.1,270.7L573.3,275.0L570.2,275.7L573.8,283.2L576.4,278.1L583.0,279.2L583.5,289.3L594.2,294.1L604.0,307.3L607.3,308.0L612.8,312.9L621.1,311.8L637.4,301.9L638.1,302.3L637.9,301.4L638.0,300.1L639.8,299.1L642.1,296.5L642.2,296.1L640.7,294.0L630.6,292.8L616.4,294.6L613.0,291.4L614.0,289.0L611.6,284.8L612.0,280.0L617.4,266.3L613.9,260.2L606.4,257.5L606.6,247.8L597.9,236.5L586.7,228.8L585.3,226.6L584.8,220.2L587.3,214.3L587.1,212.4L586.1,212.5Z " data-engtype-2="District" data-id-0="205" data-id-1="1" data-id-2="8" data-iso="SVK" data-name-0="Slovakia" data-name-1="Banskobystrický" data-name-2="Revúca" data-nl-name-2="" data-type-2="Okres" data-varname-2=""/><path d="M533.5,217.7L531.8,222.6L529.4,222.7L525.0,228.2L520.8,236.2L514.4,239.8L513.9,242.4L509.4,244.3L509.0,248.0L511.1,251.3L511.6,251.7L512.0,251.7L524.5,259.9L533.4,270.3L530.0,278.0L524.1,283.4L528.3,283.5L535.3,291.9L538.3,297.7L538.9,305.0L541.9,308.5L541.9,315.6L537.7,318.9L528.6,316.7L528.5,323.4L532.0,326.5L530.3,330.7L529.6,330.8L529.8,331.2L537.7,347.0L540.7,355.6L543.7,370.1L536.9,379.0L536.8,379.9L536.9,379.9L541.0,384.7L540.1,390.0L543.9,389.4L552.1,379.6L553.7,380.1L561.7,376.9L564.2,378.8L569.0,372.1L570.9,371.8L579.6,364.4L580.6,355.4L591.6,356.3L598.7,348.2L607.0,353.4L611.0,352.5L613.9,349.5L617.7,341.9L622.4,336.6L621.7,335.4L630.0,315.4L629.2,312.2L638.2,302.7L638.1,302.3L637.4,301.9L621.1,311.8L612.8,312.9L607.3,308.0L604.0,307.3L594.2,294.1L583.5,289.3L583.0,279.2L576.4,278.1L573.8,283.2L570.2,275.7L573.3,275.0L574.1,270.7L563.6,260.3L560.8,255.0L555.9,250.1L553.2,240.6L554.1,237.8L549.3,234.7L544.3,221.5L541.4,221.2L535.7,217.3L533.9,216.1L533.5,217.7Z " data-engtype-2="District" data-id-0="205" data-id-1="1" data-id-2="9" data-iso="SVK" data-name-0="Slovakia" data-name-1="Banskobystrický" data-name-2="Rimavská Sobota" data-nl-name-2="" data-type-2="Okres" data-varname-2=""/><path d="M448.4,319.2L444.8,321.9L443.5,321.7L442.9,321.3L442.8,322.1L446.8,326.2L446.7,329.8L442.2,332.8L439.0,347.5L436.2,349.0L428.2,344.9L426.2,340.6L425.6,333.3L421.5,329.6L420.3,328.9L420.4,330.0L417.0,335.0L415.3,346.0L416.8,348.6L418.3,359.1L407.9,367.5L403.9,364.0L399.1,368.4L392.8,365.3L388.6,371.1L387.9,371.9L387.9,371.9L389.5,391.4L383.1,399.8L382.6,403.1L384.1,403.3L393.9,406.1L404.1,403.6L407.5,405.4L418.6,406.7L420.4,408.2L441.2,399.2L448.8,399.4L449.9,400.6L456.1,399.3L456.8,397.8L467.4,394.0L468.0,386.7L470.9,381.4L470.1,377.7L473.0,374.2L475.3,368.2L475.9,368.2L475.9,367.6L476.1,353.0L478.0,352.5L476.9,347.7L466.4,343.7L462.3,338.6L460.3,331.5L454.9,331.4L449.2,320.1L448.9,318.9L448.4,319.2Z " data-engtype-2="District" data-id-0="205" data-id-1="1" data-id-2="10" data-iso="SVK" data-name-0="Slovakia" data-name-1="Banskobystrický" data-name-2="Veľký Krtíš" data-nl-name-2="" data-type-2="Okres" data-varname-2=""/><path d="M290.7,274.6L289.4,276.5L288.0,277.8L287.3,279.1L287.1,279.3L287.1,279.6L291.3,286.1L288.6,289.0L295.6,289.0L297.6,292.1L296.2,297.9L298.4,298.5L296.8,303.0L292.1,308.4L303.4,317.0L302.5,327.1L297.4,336.5L296.7,337.0L296.8,337.1L301.2,336.8L302.3,333.9L318.8,331.7L326.9,319.9L330.2,316.4L335.5,316.5L335.8,316.6L335.9,316.2L337.9,309.8L344.8,313.0L348.2,313.4L353.4,308.2L357.3,302.0L358.2,301.1L357.4,301.0L345.0,297.5L343.5,298.6L337.5,295.7L332.0,294.6L332.1,291.8L327.0,279.1L327.5,277.4L323.0,263.7L317.3,257.2L316.9,257.1L316.8,257.3L313.0,265.0L307.6,273.1L301.2,272.7L291.9,273.4L290.8,274.7L290.7,274.4L290.7,274.6Z " data-engtype-2="District" data-id-0="205" data-id-1="1" data-id-2="11" data-iso="SVK" data-name-0="Slovakia" data-name-1="Banskobystrický" data-name-2="Žarnovica" data-nl-name-2="" data-type-2="Okres" data-varname-2=""/><path d="M380.0,227.7L362.2,225.3L360.3,221.4L355.4,222.4L348.8,226.9L348.8,226.9L348.8,227.0L348.7,228.6L342.6,240.9L335.6,246.3L332.0,256.5L328.3,258.0L319.6,254.8L317.2,256.5L316.9,257.1L317.3,257.2L323.0,263.7L327.5,277.4L327.0,279.1L332.1,291.8L332.0,294.6L337.5,295.7L343.5,298.6L345.0,297.5L357.4,301.0L358.2,301.1L358.0,300.5L360.8,297.3L358.9,290.8L368.2,277.2L374.8,277.1L375.1,276.9L375.5,276.5L382.6,270.0L377.5,261.4L380.7,252.6L382.6,239.1L382.6,238.6L382.5,238.5L382.1,236.4L382.1,234.4L380.6,227.7L380.6,227.7L380.0,227.7Z " data-engtype-2="District" data-id-0="205" data-id-1="1" data-id-2="12" data-iso="SVK" data-name-0="Slovakia" data-name-1="Banskobystrický" data-name-2="Žiar nad Hronom" data-nl-name-2="" data-type-2="Okres" data-varname-2=""/><path d="M463.8,247.4L454.3,251.8L445.5,250.4L433.1,256.0L430.8,254.6L421.5,254.5L416.1,250.9L411.8,255.5L406.9,256.0L404.5,253.4L402.9,255.9L383.1,239.0L382.6,238.6L382.6,239.1L380.7,252.6L377.5,261.4L382.6,270.0L375.5,276.5L375.1,276.9L375.4,277.3L377.4,283.7L382.6,282.1L381.0,292.0L381.2,311.9L381.3,312.6L381.6,312.4L384.6,309.2L395.0,316.1L399.7,314.7L403.5,322.5L411.7,321.5L420.0,328.8L420.3,328.9L421.5,329.6L425.6,333.3L426.2,340.6L428.2,344.9L436.2,349.0L439.0,347.5L442.2,332.8L446.7,329.8L446.8,326.2L442.8,322.1L442.9,321.3L442.7,320.8L441.5,314.5L437.6,309.2L428.8,305.4L428.5,300.3L426.1,299.9L422.9,292.9L429.4,291.5L431.2,288.1L429.2,284.4L431.2,281.9L432.8,272.0L435.8,272.0L447.2,278.4L443.6,273.6L444.6,272.3L437.5,267.1L439.2,264.0L448.8,259.7L455.1,262.7L460.9,253.1L466.0,250.5L466.8,250.2L466.6,249.7L466.3,248.7L465.9,248.1L465.3,247.2L464.7,246.6L463.8,247.4Z " data-engtype-2="District" data-id-0="205" data-id-1="1" data-id-2="13" data-iso="SVK" data-name-0="Slovakia" data-name-1="Banskobystrický" data-name-2="Zvolen" data-nl-name-2="" data-type-2="Okres" data-varname-2=""/><path d="M39.9,374.8L40.0,377.5L39.7,379.0L39.4,379.6L40.1,379.9L44.8,381.2L46.9,381.2L48.7,381.4L48.9,380.9L48.9,379.3L48.4,379.0L48.1,377.1L48.2,376.3L47.4,376.5L44.9,376.3L44.3,375.5L40.8,374.1L39.8,373.9L39.9,374.8Z " data-engtype-2="District" data-id-0="205" data-id-1="2" data-id-2="14" data-iso="SVK" data-name-0="Slovakia" data-name-1="Bratislavský" data-name-2="Bratislava I" data-nl-name-2="" data-type-2="Okres" data-varname-2=""/><path d="M48.1,377.1L48.4,379.0L48.9,379.3L48.9,380.9L48.7,381.4L48.9,381.7L50.5,389.5L53.0,398.0L58.0,403.6L58.7,403.9L59.4,403.6L62.8,397.4L61.8,395.6L65.8,390.4L69.3,389.4L73.7,391.6L75.7,385.8L68.4,378.9L65.3,369.7L66.1,366.7L66.9,365.6L64.5,365.9L58.5,367.4L55.0,371.9L49.2,376.0L48.2,376.3L48.1,377.1Z " data-engtype-2="District" data-id-0="205" data-id-1="2" data-id-2="15" data-iso="SVK" data-name-0="Slovakia" data-name-1="Bratislavský" data-name-2="Bratislava II" data-nl-name-2="" data-type-2="Okres" data-varname-2=""/><path d="M65.6,363.0L56.9,354.8L51.1,353.5L50.3,353.0L49.6,353.5L38.0,361.2L37.9,362.7L39.9,373.2L39.8,373.9L40.8,374.1L44.3,375.5L44.9,376.3L47.4,376.5L48.2,376.3L49.2,376.0L55.0,371.9L58.5,367.4L64.5,365.9L66.9,365.6L66.9,365.3L66.9,364.9L66.8,364.5L66.6,364.1L65.6,363.0Z " data-engtype-2="District" data-id-0="205" data-id-1="2" data-id-2="16" data-iso="SVK" data-name-0="Slovakia" data-name-1="Bratislavský" data-name-2="Bratislava III" data-nl-name-2="" data-type-2="Okres" data-varname-2=""/><path d="M50.1,352.3L49.7,352.2L40.6,352.2L40.2,354.2L33.3,351.1L29.2,351.3L21.9,347.3L20.8,347.0L20.5,348.1L20.1,355.4L23.9,365.1L24.0,371.3L32.3,378.9L38.5,379.5L38.8,380.2L39.4,379.7L39.4,379.6L39.7,379.0L40.0,377.5L39.9,374.8L39.8,373.9L39.9,373.2L37.9,362.7L38.0,361.2L49.6,353.5L50.3,353.0L50.1,352.3Z " data-engtype-2="District" data-id-0="205" data-id-1="2" data-id-2="17" data-iso="SVK" data-name-0="Slovakia" data-name-1="Bratislavský" data-name-2="Bratislava IV" data-nl-name-2="" data-type-2="Okres" data-varname-2=""/><path d="M39.2,381.0L42.1,387.0L43.2,399.8L39.9,402.5L43.0,403.7L39.4,408.6L43.9,411.8L47.8,409.3L55.6,415.7L64.6,412.8L67.5,413.5L68.5,413.4L67.9,413.2L66.0,411.0L61.1,405.7L58.7,403.9L58.0,403.6L53.0,398.0L50.5,389.5L48.9,381.7L48.7,381.4L46.9,381.2L44.8,381.2L40.1,379.9L39.4,379.6L39.4,379.7L38.8,380.2L39.2,381.0Z " data-engtype-2="District" data-id-0="205" data-id-1="2" data-id-2="18" data-iso="SVK" data-name-0="Slovakia" data-name-1="Bratislavský" data-name-2="Bratislava V" data-nl-name-2="" data-type-2="Okres" data-varname-2=""/><path d="M22.8,273.0L21.4,278.2L17.6,280.8L15.7,285.4L11.4,286.1L11.1,290.1L4.3,297.0L6.3,305.2L2.0,318.1L2.8,323.5L7.7,324.1L7.0,326.2L13.2,330.4L9.8,335.8L13.3,338.8L15.4,343.9L20.1,344.1L20.7,346.8L20.8,347.0L21.9,347.3L29.2,351.3L33.3,351.1L40.2,354.2L40.6,352.2L49.7,352.2L50.1,352.3L50.8,351.6L53.9,348.0L59.8,331.8L62.4,327.1L61.6,324.4L64.5,317.6L69.6,317.0L73.1,312.9L74.7,305.0L77.8,305.2L84.3,298.7L85.2,298.4L84.0,297.5L82.4,295.2L82.1,292.0L90.6,284.9L90.7,284.7L90.7,284.7L77.2,272.3L85.3,264.8L92.8,259.4L95.3,256.3L93.8,248.6L92.2,247.5L81.3,255.1L72.7,264.2L72.7,265.9L60.5,269.5L50.4,270.9L43.6,270.2L36.3,265.7L37.3,268.9L30.7,269.4L23.1,272.1L22.8,273.0Z " data-engtype-2="District" data-id-0="205" data-id-1="2" data-id-2="19" data-iso="SVK" data-name-0="Slovakia" data-name-1="Bratislavský" data-name-2="Malacky" data-nl-name-2="" data-type-2="Okres" data-varname-2=""/><path d="M84.3,298.7L77.8,305.2L74.7,305.0L73.1,312.9L69.6,317.0L64.5,317.6L61.6,324.4L62.4,327.1L59.8,331.8L53.9,348.0L50.8,351.6L50.1,352.3L50.3,353.0L51.1,353.5L56.9,354.8L65.6,363.0L66.6,364.1L67.3,363.6L65.7,357.3L71.3,354.3L81.2,355.8L87.8,352.7L89.3,345.6L94.4,345.5L104.0,343.0L110.0,338.0L111.2,337.4L109.5,336.9L107.9,336.1L111.2,323.2L106.1,321.7L102.6,312.3L95.7,301.4L85.5,298.5L85.2,298.4L84.3,298.7Z " data-engtype-2="District" data-id-0="205" data-id-1="2" data-id-2="20" data-iso="SVK" data-name-0="Slovakia" data-name-1="Bratislavský" data-name-2="Pezinok" data-nl-name-2="" data-type-2="Okres" data-varname-2=""/><path d="M115.6,345.5L114.8,343.8L113.2,341.3L111.5,337.6L111.2,337.4L110.0,338.0L104.0,343.0L94.4,345.5L89.3,345.6L87.8,352.7L81.2,355.8L71.3,354.3L65.7,357.3L67.3,363.6L66.6,364.1L66.8,364.5L66.9,364.9L66.9,365.3L66.9,365.6L66.1,366.7L65.3,369.7L68.4,378.9L75.7,385.8L73.7,391.6L69.3,389.4L65.8,390.4L61.8,395.6L62.8,397.4L59.4,403.6L58.7,403.9L61.1,405.7L66.0,411.0L67.9,413.2L68.5,413.4L68.7,413.4L69.1,413.4L69.5,413.3L70.6,413.1L71.0,413.6L78.1,407.7L76.9,404.5L83.4,398.1L81.3,386.7L93.4,384.1L93.6,377.6L103.2,381.2L108.9,380.6L109.0,380.6L109.0,380.6L118.8,372.8L118.1,366.7L120.0,363.7L111.4,356.7L112.1,352.5L114.6,350.6L115.8,346.2L115.8,346.0L115.6,345.5Z " data-engtype-2="District" data-id-0="205" data-id-1="2" data-id-2="21" data-iso="SVK" data-name-0="Slovakia" data-name-1="Bratislavský" data-name-2="Senec" data-nl-name-2="" data-type-2="Okres" data-varname-2=""/><path d="M733.3,180.8L727.4,172.9L717.6,170.1L712.2,167.3L711.4,167.0L710.8,167.6L709.9,175.4L715.0,184.3L706.3,195.8L693.2,199.8L684.0,200.6L672.1,194.6L669.9,198.1L668.5,186.9L665.4,185.9L659.7,187.7L655.1,192.6L649.9,206.0L645.7,210.8L645.8,212.7L646.0,213.1L651.0,218.2L651.6,223.4L663.4,223.5L668.4,227.3L668.5,234.4L670.1,240.4L686.1,245.5L686.6,245.4L687.3,244.3L687.3,235.1L690.6,231.2L703.0,224.4L704.6,218.5L706.9,216.7L716.3,219.7L724.3,216.0L733.6,216.9L735.0,215.5L734.3,208.7L741.9,197.7L737.0,193.0L740.4,188.4L738.3,182.5L733.4,181.0L733.4,180.9L733.3,180.8Z " data-engtype-2="District" data-id-0="205" data-id-1="3" data-id-2="22" data-iso="SVK" data-name-0="Slovakia" data-name-1="Košický" data-name-2="Gelnica" data-nl-name-2="" data-type-2="Okres" data-varname-2=""/><path d="M813.1,192.6L804.4,187.1L800.8,187.2L794.8,189.9L795.1,194.9L782.9,200.5L777.0,202.4L772.6,201.6L772.2,197.0L775.2,192.9L772.2,190.3L761.6,187.7L759.9,184.5L733.5,181.1L733.4,180.9L733.4,181.0L738.3,182.5L740.4,188.4L737.0,193.0L741.9,197.7L734.3,208.7L735.0,215.5L733.6,216.9L724.3,216.0L716.3,219.7L706.9,216.7L704.6,218.5L703.0,224.4L690.6,231.2L687.3,235.1L687.3,244.3L686.6,245.4L688.2,246.2L696.0,248.1L699.0,257.5L697.1,258.0L699.1,263.8L696.2,263.2L696.9,269.8L696.6,269.9L697.1,270.1L702.7,266.7L704.4,267.5L707.6,275.3L720.1,278.8L723.9,282.0L730.2,281.0L742.8,281.7L748.7,285.3L748.8,288.5L753.3,290.4L764.7,280.8L773.4,276.9L774.8,278.6L784.6,280.2L786.9,273.5L794.3,271.4L804.6,270.4L805.3,265.9L819.8,271.7L822.2,277.1L822.5,277.6L822.9,276.8L822.5,259.6L830.7,255.8L824.3,233.9L826.5,226.9L824.6,209.3L825.0,209.3L824.9,209.3L823.5,207.7L821.1,203.9L813.9,193.2L813.9,192.7L813.1,192.6Z M783.4,213.3L784.0,220.8L787.2,226.2L786.0,231.4L785.8,231.6L785.9,231.8L790.8,249.2L781.5,249.2L775.0,249.8L774.5,250.0L774.0,250.0L771.2,248.7L768.3,250.3L771.0,256.7L770.2,263.1L772.3,267.5L770.8,269.2L763.0,267.0L760.0,257.2L752.0,255.7L753.2,250.9L751.8,248.0L762.2,244.0L761.9,236.8L764.4,236.8L761.8,230.3L761.7,230.1L761.0,229.9L751.0,219.4L754.8,213.3L753.2,206.2L755.8,203.6L761.5,208.6L766.1,209.5L772.5,216.7L778.0,208.6L783.3,212.5L783.4,212.9L783.4,213.3Z " data-engtype-2="District" data-id-0="205" data-id-1="3" data-id-2="23" data-iso="SVK" data-name-0="Slovakia" data-name-1="Košický" data-name-2="Košice-okolie" data-nl-name-2="" data-type-2="Okres" data-varname-2=""/><path d="M783.3,212.5L778.0,208.6L772.5,216.7L766.1,209.5L761.5,208.6L755.8,203.6L753.2,206.2L754.8,213.3L751.0,219.4L761.0,229.9L761.7,230.1L762.0,229.2L764.2,228.8L768.9,228.1L773.5,231.0L774.0,231.6L774.3,231.5L776.6,231.0L778.1,230.0L778.6,229.1L778.7,228.2L778.7,227.7L777.8,223.7L781.2,217.5L783.1,212.8L783.4,212.9L783.3,212.5Z " data-engtype-2="District" data-id-0="205" data-id-1="3" data-id-2="24" data-iso="SVK" data-name-0="Slovakia" data-name-1="Košický" data-name-2="Košice I" data-nl-name-2="" data-type-2="Okres" data-varname-2=""/><path d="M761.8,230.3L764.4,236.8L761.9,236.8L762.2,244.0L751.8,248.0L753.2,250.9L752.0,255.7L760.0,257.2L763.0,267.0L770.8,269.2L772.3,267.5L770.2,263.1L771.0,256.7L768.3,250.3L771.2,248.7L774.0,250.0L774.5,250.0L774.1,249.2L768.3,245.0L768.9,238.8L773.6,232.5L774.0,231.6L773.5,231.0L768.9,228.1L764.2,228.8L762.0,229.2L761.7,230.1L761.8,230.3Z " data-engtype-2="District" data-id-0="205" data-id-1="3" data-id-2="25" data-iso="SVK" data-name-0="Slovakia" data-name-1="Košický" data-name-2="Košice II" data-nl-name-2="" data-type-2="Okres" data-varname-2=""/><path d="M783.1,212.8L781.2,217.5L777.8,223.7L778.7,227.7L778.7,228.2L780.1,228.6L782.2,229.8L782.9,231.3L785.3,231.7L785.8,231.6L786.0,231.4L787.2,226.2L784.0,220.8L783.4,213.3L783.4,212.9L783.1,212.8Z " data-engtype-2="District" data-id-0="205" data-id-1="3" data-id-2="26" data-iso="SVK" data-name-0="Slovakia" data-name-1="Košický" data-name-2="Košice III" data-nl-name-2="" data-type-2="Okres" data-varname-2=""/><path d="M773.6,232.5L768.9,238.8L768.3,245.0L774.1,249.2L774.5,250.0L775.0,249.8L781.5,249.2L790.8,249.2L785.9,231.8L785.8,231.6L785.3,231.7L782.9,231.3L782.2,229.8L780.1,228.6L778.7,228.2L778.6,229.1L778.1,230.0L776.6,231.0L774.3,231.5L774.0,231.6L773.6,232.5Z " data-engtype-2="District" data-id-0="205" data-id-1="3" data-id-2="27" data-iso="SVK" data-name-0="Slovakia" data-name-1="Košický" data-name-2="Košice IV" data-nl-name-2="" data-type-2="Okres" data-varname-2=""/><path d="M931.0,177.6L926.2,182.2L926.4,188.7L907.6,189.3L897.1,191.1L890.6,184.2L888.2,183.0L868.5,179.2L868.4,179.3L868.4,179.3L866.7,194.8L869.3,203.4L867.8,206.1L862.9,207.7L862.1,211.1L862.2,211.4L862.2,211.5L864.6,214.7L863.1,221.2L857.0,222.5L859.8,229.7L858.6,232.3L863.7,233.9L866.9,244.1L871.1,247.0L871.2,254.1L874.0,267.4L873.0,269.6L875.6,276.3L877.0,276.4L873.8,281.7L877.1,287.4L874.8,293.7L879.2,295.4L889.5,284.0L899.0,284.3L906.6,282.8L917.7,284.7L921.8,288.1L930.0,291.1L932.2,296.2L932.6,296.4L933.2,294.5L934.5,280.0L935.0,272.0L935.9,267.1L935.8,267.3L934.1,260.7L931.3,257.8L928.9,250.7L929.8,248.3L923.4,241.6L919.3,240.2L922.6,231.7L915.1,221.0L914.9,218.8L922.9,214.9L919.2,210.2L922.3,202.1L929.0,200.3L933.1,183.2L931.1,178.2L931.0,177.7L931.0,177.6Z " data-engtype-2="District" data-id-0="205" data-id-1="3" data-id-2="28" data-iso="SVK" data-name-0="Slovakia" data-name-1="Košický" data-name-2="Michalovce" data-nl-name-2="" data-type-2="Okres" data-varname-2=""/><path d="M610.6,178.8L605.9,181.1L599.9,190.3L597.7,190.5L597.6,190.4L596.9,192.2L593.0,195.4L591.5,200.9L587.2,212.3L587.1,212.4L587.3,214.3L584.8,220.2L585.3,226.6L586.7,228.8L597.9,236.5L606.6,247.8L606.4,257.5L613.9,260.2L617.4,266.3L612.0,280.0L611.6,284.8L614.0,289.0L613.0,291.4L616.4,294.6L630.6,292.8L640.7,294.0L642.2,296.1L642.8,294.4L643.9,293.2L644.8,281.8L649.9,283.6L651.6,278.3L659.2,280.7L666.6,276.1L674.6,272.4L675.9,273.7L685.9,269.5L696.6,269.8L696.6,269.9L696.9,269.8L696.2,263.2L699.1,263.8L697.1,258.0L699.0,257.5L696.0,248.1L688.2,246.2L686.6,245.4L686.1,245.5L670.1,240.4L668.5,234.4L668.4,227.3L663.4,223.5L651.6,223.4L651.0,218.2L646.0,213.1L645.8,212.7L645.1,212.6L638.7,211.2L635.0,204.7L626.7,201.6L620.2,195.1L620.6,188.6L624.6,183.7L617.9,183.3L610.7,178.8L610.6,178.6L610.6,178.8Z " data-engtype-2="District" data-id-0="205" data-id-1="3" data-id-2="29" data-iso="SVK" data-name-0="Slovakia" data-name-1="Košický" data-name-2="Rožňava" data-nl-name-2="" data-type-2="Okres" data-varname-2=""/><path d="M931.1,178.2L933.1,183.2L929.0,200.3L922.3,202.1L919.2,210.2L922.9,214.9L914.9,218.8L915.1,221.0L922.6,231.7L919.3,240.2L923.4,241.6L929.8,248.3L928.9,250.7L931.3,257.8L934.1,260.7L935.8,267.3L935.9,267.1L935.8,266.5L938.8,255.7L946.8,250.9L950.1,242.3L956.1,237.5L957.1,234.6L966.0,229.8L968.2,219.0L966.7,215.4L962.9,214.1L963.8,209.3L969.8,201.2L968.6,189.5L969.5,184.7L969.5,184.4L966.5,182.7L949.2,185.9L949.3,184.5L938.9,169.7L938.0,170.2L936.9,171.0L935.5,172.5L933.9,174.6L931.3,177.4L931.0,177.7L931.1,178.2Z " data-engtype-2="District" data-id-0="205" data-id-1="3" data-id-2="30" data-iso="SVK" data-name-0="Slovakia" data-name-1="Košický" data-name-2="Sobrance" data-nl-name-2="" data-type-2="Okres" data-varname-2=""/><path d="M710.6,166.7L708.5,165.4L707.6,165.1L705.8,165.1L705.6,164.7L705.5,164.8L688.4,156.8L686.9,156.9L686.8,164.4L678.8,165.3L667.1,169.5L660.1,167.2L657.3,163.9L651.7,163.0L642.7,157.3L637.0,158.1L637.5,165.9L636.1,162.8L636.0,162.6L635.7,162.3L627.5,158.6L624.5,161.5L620.0,162.6L604.6,170.7L604.1,172.6L610.6,178.1L610.6,178.6L610.7,178.8L617.9,183.3L624.6,183.7L620.6,188.6L620.2,195.1L626.7,201.6L635.0,204.7L638.7,211.2L645.1,212.6L645.8,212.7L645.7,210.8L649.9,206.0L655.1,192.6L659.7,187.7L665.4,185.9L668.5,186.9L669.9,198.1L672.1,194.6L684.0,200.6L693.2,199.8L706.3,195.8L715.0,184.3L709.9,175.4L710.8,167.6L711.4,167.0L710.6,166.7Z " data-engtype-2="District" data-id-0="205" data-id-1="3" data-id-2="31" data-iso="SVK" data-name-0="Slovakia" data-name-1="Košický" data-name-2="Spišská Nová Ves" data-nl-name-2="" data-type-2="Okres" data-varname-2=""/><path d="M824.6,209.3L826.5,226.9L824.3,233.9L830.7,255.8L822.5,259.6L822.9,276.8L822.5,277.6L823.0,278.5L825.3,282.4L832.8,284.8L838.5,282.9L842.4,300.0L851.1,314.3L852.6,314.7L860.5,325.4L867.7,327.5L871.8,327.2L879.5,328.6L880.4,320.2L888.7,318.9L888.6,320.3L895.5,320.4L895.3,317.8L902.4,315.2L908.5,315.1L910.4,312.7L916.3,315.9L920.3,313.5L924.7,315.4L932.0,314.0L932.2,297.8L932.6,296.4L932.2,296.2L930.0,291.1L921.8,288.1L917.7,284.7L906.6,282.8L899.0,284.3L889.5,284.0L879.2,295.4L874.8,293.7L877.1,287.4L873.8,281.7L877.0,276.4L875.6,276.3L873.0,269.6L874.0,267.4L871.2,254.1L871.1,247.0L866.9,244.1L863.7,233.9L858.6,232.3L859.8,229.7L857.0,222.5L863.1,221.2L864.6,214.7L862.2,211.5L862.2,211.4L861.6,211.8L854.3,214.5L849.1,214.7L844.1,211.9L838.8,211.7L825.9,209.5L825.0,209.3L824.6,209.3Z " data-engtype-2="District" data-id-0="205" data-id-1="3" data-id-2="32" data-iso="SVK" data-name-0="Slovakia" data-name-1="Košický" data-name-2="Trebišov" data-nl-name-2="" data-type-2="Okres" data-varname-2=""/><path d="M294.5,486.8L294.2,486.4L296.6,479.1L298.2,479.0L296.6,471.9L291.1,469.5L277.6,457.8L268.3,455.1L263.3,439.5L254.2,435.1L260.0,441.2L257.8,442.3L245.7,433.5L234.5,437.3L231.6,435.4L230.1,430.9L224.8,428.8L216.6,435.8L207.6,437.2L208.2,432.3L206.7,428.2L199.1,431.8L198.7,432.0L197.7,431.8L193.9,430.2L190.5,427.8L183.0,425.7L182.6,425.7L182.6,425.7L183.0,428.5L182.9,429.5L182.1,432.9L181.9,433.4L182.1,433.6L179.2,449.3L169.8,454.3L160.8,470.6L154.2,471.5L154.6,476.7L149.3,482.1L150.8,483.8L163.4,489.0L177.8,488.4L184.4,490.4L192.4,488.9L196.8,485.5L202.3,488.2L209.7,485.9L217.1,486.0L227.5,487.9L235.3,491.0L243.5,490.6L254.7,493.0L268.7,489.4L282.0,484.7L292.4,487.6L294.5,486.8Z " data-engtype-2="District" data-id-0="205" data-id-1="4" data-id-2="33" data-iso="SVK" data-name-0="Slovakia" data-name-1="Nitriansky" data-name-2="Komárno" data-nl-name-2="" data-type-2="Okres" data-varname-2=""/><path d="M335.5,316.5L330.2,316.4L326.9,319.9L318.8,331.7L302.3,333.9L301.2,336.8L296.8,337.1L296.7,337.0L296.7,337.0L287.1,335.9L287.1,342.4L284.8,346.5L286.0,350.7L277.7,346.6L273.7,349.5L275.2,352.6L275.5,353.3L275.9,353.6L280.5,360.2L272.4,366.3L265.2,365.5L264.3,375.9L264.4,376.2L264.7,376.7L266.7,381.2L269.8,382.2L274.0,387.6L276.2,387.4L282.9,390.9L284.1,394.3L281.6,401.3L278.7,402.5L282.2,409.5L281.4,412.3L285.8,419.0L284.0,421.1L283.5,428.2L284.8,436.0L299.6,439.5L300.3,438.1L309.8,439.2L314.6,436.7L322.4,438.4L325.1,436.1L340.0,437.5L340.2,437.7L340.2,437.1L339.0,427.9L347.2,425.5L348.4,417.3L355.7,410.3L358.4,411.1L370.2,407.9L378.2,408.3L382.5,403.7L382.6,403.1L383.1,399.8L389.5,391.4L387.9,371.9L387.9,371.9L387.8,371.9L375.4,379.3L356.9,382.8L343.8,377.1L348.1,369.9L344.3,363.5L346.4,354.9L349.3,353.9L349.9,349.1L352.6,344.6L352.6,344.6L352.6,344.1L349.9,339.9L342.4,324.2L336.2,316.8L335.8,316.6L335.5,316.5Z " data-engtype-2="District" data-id-0="205" data-id-1="4" data-id-2="34" data-iso="SVK" data-name-0="Slovakia" data-name-1="Nitriansky" data-name-2="Levice" data-nl-name-2="" data-type-2="Okres" data-varname-2=""/><path d="M236.9,306.7L227.2,304.7L226.2,306.8L216.2,308.6L214.4,307.5L211.0,300.1L208.2,299.0L197.5,300.0L197.3,299.9L197.1,300.4L185.5,316.4L184.3,320.9L178.7,328.1L179.1,329.7L179.1,329.9L179.2,330.1L177.9,333.3L177.5,337.1L180.5,347.8L180.6,347.8L181.3,348.0L195.6,355.0L201.4,356.2L201.8,367.3L200.6,372.7L204.0,377.2L204.8,378.0L205.3,378.7L212.4,384.0L227.0,373.5L228.3,371.5L236.3,369.0L237.9,371.1L236.9,376.7L243.9,375.5L246.9,369.0L263.8,376.3L264.4,376.2L264.3,375.9L265.2,365.5L272.4,366.3L280.5,360.2L275.9,353.6L275.5,353.3L274.4,353.2L266.0,349.6L266.4,345.6L258.7,344.2L255.0,338.7L247.5,333.8L249.5,330.6L250.2,325.7L242.9,314.1L237.6,307.8L237.3,306.8L236.9,306.7Z " data-engtype-2="District" data-id-0="205" data-id-1="4" data-id-2="35" data-iso="SVK" data-name-0="Slovakia" data-name-1="Nitriansky" data-name-2="Nitra" data-nl-name-2="" data-type-2="Okres" data-varname-2=""/><path d="M204.5,379.0L198.0,387.6L202.9,390.3L204.4,394.9L202.0,399.4L201.3,405.4L206.8,417.2L199.8,421.9L198.0,430.6L198.7,432.0L199.1,431.8L206.7,428.2L208.2,432.3L207.6,437.2L216.6,435.8L224.8,428.8L230.1,430.9L231.6,435.4L234.5,437.3L245.7,433.5L257.8,442.3L260.0,441.2L254.2,435.1L263.3,439.5L268.3,455.1L277.6,457.8L291.1,469.5L296.6,471.9L298.2,479.0L296.6,479.1L294.2,486.4L294.5,486.8L294.6,486.8L314.6,486.7L331.3,478.4L332.9,473.4L341.4,471.2L353.1,471.8L348.6,463.3L343.3,458.6L339.5,457.9L338.2,454.4L337.5,445.3L340.2,438.6L340.2,437.7L340.0,437.5L325.1,436.1L322.4,438.4L314.6,436.7L309.8,439.2L300.3,438.1L299.6,439.5L284.8,436.0L283.5,428.2L284.0,421.1L285.8,419.0L281.4,412.3L282.2,409.5L278.7,402.5L281.6,401.3L284.1,394.3L282.9,390.9L276.2,387.4L274.0,387.6L269.8,382.2L266.7,381.2L264.7,376.7L264.4,376.2L263.8,376.3L246.9,369.0L243.9,375.5L236.9,376.7L237.9,371.1L236.3,369.0L228.3,371.5L227.0,373.5L212.4,384.0L205.3,378.7L204.8,378.0L204.5,379.0Z " data-engtype-2="District" data-id-0="205" data-id-1="4" data-id-2="36" data-iso="SVK" data-name-0="Slovakia" data-name-1="Nitriansky" data-name-2="Nové Zámky" data-nl-name-2="" data-type-2="Okres" data-varname-2=""/><path d="M204.0,377.2L200.6,372.7L201.8,367.3L201.4,356.2L195.6,355.0L181.3,348.0L180.6,347.8L180.7,347.9L176.1,355.5L184.1,366.6L182.0,370.0L175.0,372.5L169.0,371.7L172.1,378.4L169.1,380.1L163.4,378.2L159.8,380.8L171.7,391.5L171.8,396.2L169.1,399.9L170.0,403.0L176.0,400.9L178.9,408.6L181.3,409.0L183.2,415.2L182.6,425.6L182.6,425.7L183.0,425.7L190.5,427.8L193.9,430.2L197.7,431.8L198.7,432.0L198.0,430.6L199.8,421.9L206.8,417.2L201.3,405.4L202.0,399.4L204.4,394.9L202.9,390.3L198.0,387.6L204.5,379.0L204.8,378.0L204.0,377.2Z " data-engtype-2="District" data-id-0="205" data-id-1="4" data-id-2="37" data-iso="SVK" data-name-0="Slovakia" data-name-1="Nitriansky" data-name-2="Šaľa" data-nl-name-2="" data-type-2="Okres" data-varname-2=""/><path d="M207.4,233.0L205.7,240.8L207.1,249.0L209.7,256.6L200.9,259.4L200.8,259.5L200.8,259.5L198.6,264.7L186.0,265.5L178.9,282.6L178.9,282.7L178.9,282.8L185.1,288.2L192.4,294.3L197.1,299.3L197.3,299.9L197.5,300.0L208.2,299.0L211.0,300.1L214.4,307.5L216.2,308.6L226.2,306.8L227.2,304.7L236.9,306.7L237.3,306.8L237.9,306.6L248.2,296.7L249.0,295.6L257.7,291.9L258.4,291.4L258.3,291.3L256.5,285.0L250.2,276.6L245.2,276.2L243.0,269.3L246.1,266.2L247.4,260.2L241.3,256.7L241.4,256.5L241.3,256.5L232.0,249.0L231.0,244.3L226.1,239.3L213.0,236.4L207.8,233.1L207.5,233.0L207.4,233.0Z " data-engtype-2="District" data-id-0="205" data-id-1="4" data-id-2="38" data-iso="SVK" data-name-0="Slovakia" data-name-1="Nitriansky" data-name-2="Topolcany" data-nl-name-2="" data-type-2="Okres" data-varname-2=""/><path d="M287.1,279.3L280.7,282.4L270.0,290.9L267.6,289.2L265.2,293.6L258.4,291.4L258.4,291.4L257.7,291.9L249.0,295.6L248.2,296.7L237.9,306.6L237.3,306.8L237.6,307.8L242.9,314.1L250.2,325.7L249.5,330.6L247.5,333.8L255.0,338.7L258.7,344.2L266.4,345.6L266.0,349.6L274.4,353.2L275.5,353.3L275.2,352.6L273.7,349.5L277.7,346.6L286.0,350.7L284.8,346.5L287.1,342.4L287.1,335.9L296.7,337.0L296.7,337.0L297.4,336.5L302.5,327.1L303.4,317.0L292.1,308.4L296.8,303.0L298.4,298.5L296.2,297.9L297.6,292.1L295.6,289.0L288.6,289.0L291.3,286.1L287.1,279.6L287.1,279.3L287.1,279.3Z " data-engtype-2="District" data-id-0="205" data-id-1="4" data-id-2="39" data-iso="SVK" data-name-0="Slovakia" data-name-1="Nitriansky" data-name-2="Zlaté Moravce" data-nl-name-2="" data-type-2="Okres" data-varname-2=""/><path d="M802.0,45.5L795.3,40.4L789.3,39.6L772.2,34.3L767.6,40.6L758.7,50.0L748.0,41.3L744.4,44.1L742.3,43.0L734.2,46.3L735.5,49.9L743.4,55.8L743.7,57.2L737.4,60.0L734.2,59.7L728.1,65.9L724.4,74.8L723.4,75.2L723.6,75.6L726.1,82.9L725.0,83.1L725.8,94.2L725.0,95.7L726.3,96.5L732.5,99.8L736.5,98.8L747.4,98.4L750.2,102.0L757.3,107.0L757.5,107.6L758.7,108.6L769.3,115.2L775.8,114.9L778.4,117.4L779.6,122.8L784.7,121.7L792.5,124.5L794.1,124.2L794.1,123.3L797.6,119.8L803.6,116.4L806.7,113.0L811.4,115.1L813.2,118.3L821.9,119.5L821.7,117.9L809.9,103.9L815.8,96.8L813.6,89.5L811.4,87.3L811.9,82.1L806.0,78.0L803.6,71.3L801.6,71.9L797.7,67.9L799.3,63.2L791.1,56.7L801.5,47.8L802.7,45.4L802.7,45.4L802.0,45.5Z " data-engtype-2="District" data-id-0="205" data-id-1="5" data-id-2="40" data-iso="SVK" data-name-0="Slovakia" data-name-1="Prešov" data-name-2="Bardejov" data-nl-name-2="" data-type-2="Okres" data-varname-2=""/><path d="M926.7,102.0L925.5,100.8L925.5,98.4L920.8,98.5L919.8,98.5L919.7,98.6L915.8,106.3L915.3,109.9L901.1,118.7L893.4,127.0L888.3,124.8L881.2,127.9L880.1,123.7L873.4,122.4L863.4,103.6L862.8,101.7L861.9,102.3L860.8,104.0L861.2,112.0L857.1,117.1L857.0,117.7L857.8,119.0L861.7,132.6L863.2,135.7L858.9,142.9L862.7,146.3L862.9,150.4L868.3,161.3L865.4,170.0L865.5,177.1L868.0,179.2L868.4,179.3L868.5,179.2L888.2,183.0L890.6,184.2L897.1,191.1L907.6,189.3L926.4,188.7L926.2,182.2L931.0,177.6L931.0,177.7L931.3,177.4L933.9,174.6L935.5,172.5L936.9,171.0L938.0,170.2L937.8,169.8L930.6,167.3L928.6,163.7L923.0,168.7L915.8,166.4L907.0,161.8L911.2,157.0L912.0,150.3L913.9,148.1L922.3,144.0L920.2,134.4L925.5,130.6L924.7,126.0L920.7,124.1L922.2,113.7L923.4,113.4L927.5,102.3L927.9,102.0L926.7,102.0Z " data-engtype-2="District" data-id-0="205" data-id-1="5" data-id-2="41" data-iso="SVK" data-name-0="Slovakia" data-name-1="Prešov" data-name-2="Humenné" data-nl-name-2="" data-type-2="Okres" data-varname-2=""/><path d="M628.3,53.3L619.7,54.7L618.5,50.2L609.4,53.4L610.5,60.7L608.2,68.0L603.8,65.6L588.6,68.3L585.5,72.4L584.7,72.3L584.8,72.4L584.9,78.0L594.3,82.5L608.2,83.8L615.4,110.9L611.0,111.1L608.2,115.8L608.6,118.8L600.6,122.1L607.9,129.2L616.4,134.0L616.2,141.0L623.7,147.4L630.2,148.9L630.8,149.3L631.8,149.2L655.5,141.9L658.0,139.8L663.5,139.5L673.1,128.3L678.7,129.6L682.1,124.3L683.5,124.5L685.2,124.9L686.2,124.9L688.5,119.7L693.9,114.9L685.8,103.0L684.3,102.9L684.0,102.7L675.6,99.6L669.5,92.0L648.6,92.4L646.2,94.5L639.1,87.1L639.8,80.1L639.3,74.3L634.8,74.9L627.3,79.3L623.0,75.1L624.4,66.0L630.8,53.0L628.8,53.0L628.3,53.3Z " data-engtype-2="District" data-id-0="205" data-id-1="5" data-id-2="42" data-iso="SVK" data-name-0="Slovakia" data-name-1="Prešov" data-name-2="Kežmarok" data-nl-name-2="" data-type-2="Okres" data-varname-2=""/><path d="M708.8,135.8L699.8,136.4L697.3,136.6L685.2,125.3L685.2,124.9L683.5,124.5L682.1,124.3L678.7,129.6L673.1,128.3L663.5,139.5L658.0,139.8L655.5,141.9L631.8,149.2L630.8,149.3L631.2,150.5L631.7,153.4L630.4,160.1L636.0,162.5L636.0,162.6L636.1,162.8L637.5,165.9L637.0,158.1L642.7,157.3L651.7,163.0L657.3,163.9L660.1,167.2L667.1,169.5L678.8,165.3L686.8,164.4L686.9,156.9L688.4,156.8L705.5,164.8L705.6,164.7L706.2,164.2L707.9,158.1L706.0,156.3L706.8,147.5L709.2,139.9L709.6,137.1L708.8,135.8Z " data-engtype-2="District" data-id-0="205" data-id-1="5" data-id-2="43" data-iso="SVK" data-name-0="Slovakia" data-name-1="Prešov" data-name-2="Levoca" data-nl-name-2="" data-type-2="Okres" data-varname-2=""/><path d="M862.2,59.4L863.3,59.4L872.4,70.6L876.9,73.1L874.1,81.8L871.3,84.6L871.9,87.1L868.8,97.2L863.6,101.1L862.8,101.7L863.4,103.6L873.4,122.4L880.1,123.7L881.2,127.9L888.3,124.8L893.4,127.0L901.1,118.7L915.3,109.9L915.8,106.3L919.7,98.6L919.8,98.5L919.6,98.5L907.8,93.7L906.5,81.8L905.3,77.1L900.6,72.3L895.8,64.0L887.5,60.5L887.5,59.3L873.3,52.2L865.0,52.2L862.7,59.4L862.2,59.4Z " data-engtype-2="District" data-id-0="205" data-id-1="5" data-id-2="44" data-iso="SVK" data-name-0="Slovakia" data-name-1="Prešov" data-name-2="Medzilaborce" data-nl-name-2="" data-type-2="Okres" data-varname-2=""/><path d="M553.8,180.4L553.9,180.5L561.6,182.7L568.6,186.0L580.8,187.7L585.1,182.9L597.4,189.9L597.6,190.4L597.7,190.5L599.9,190.3L605.9,181.1L610.6,178.8L610.6,178.6L610.6,178.1L604.1,172.6L604.6,170.7L620.0,162.6L624.5,161.5L627.5,158.6L635.7,162.3L636.0,162.6L636.0,162.5L630.4,160.1L631.7,153.4L631.2,150.5L630.8,149.3L630.2,148.9L623.7,147.4L616.2,141.0L616.4,134.0L607.9,129.2L600.6,122.1L608.6,118.8L608.2,115.8L611.0,111.1L615.4,110.9L608.2,83.8L594.3,82.5L584.9,78.0L584.8,72.4L584.7,72.3L584.3,72.2L572.2,92.6L572.3,99.0L567.6,111.4L558.4,106.1L556.3,101.3L550.0,98.0L541.3,96.8L539.5,97.5L531.3,107.1L531.4,107.2L536.4,116.1L537.7,124.5L543.2,123.4L545.4,128.8L549.5,130.3L560.8,127.5L560.6,130.9L556.7,152.3L549.7,154.5L553.5,159.4L559.2,172.4L564.6,173.2L563.9,176.9L553.8,180.3L553.8,180.4Z " data-engtype-2="District" data-id-0="205" data-id-1="5" data-id-2="45" data-iso="SVK" data-name-0="Slovakia" data-name-1="Prešov" data-name-2="Poprad" data-nl-name-2="" data-type-2="Okres" data-varname-2=""/><path d="M792.5,124.5L784.7,121.7L779.6,122.8L778.4,117.4L775.8,114.9L769.3,115.2L758.7,108.6L757.5,107.6L756.9,108.0L756.2,112.8L760.6,118.3L760.6,120.0L766.1,134.3L759.6,136.4L757.6,134.8L758.2,139.9L749.6,145.0L742.0,145.5L739.8,150.0L725.8,134.4L721.1,136.7L713.9,133.0L710.6,136.2L709.6,137.1L709.2,139.9L706.8,147.5L706.0,156.3L707.9,158.1L706.2,164.2L705.6,164.7L705.8,165.1L707.6,165.1L708.5,165.4L710.6,166.7L711.4,167.0L712.2,167.3L717.6,170.1L727.4,172.9L733.3,180.8L733.4,180.9L733.5,181.1L759.9,184.5L761.6,187.7L772.2,190.3L775.2,192.9L772.2,197.0L772.6,201.6L777.0,202.4L782.9,200.5L795.1,194.9L794.8,189.9L800.8,187.2L804.4,187.1L813.1,192.6L813.9,192.7L814.3,191.2L813.4,176.7L811.0,171.7L800.8,158.4L802.9,153.9L799.8,150.6L801.7,145.5L808.1,139.0L809.4,135.9L810.1,135.2L809.1,134.1L802.6,128.7L799.8,125.5L794.8,124.4L794.1,124.2L792.5,124.5Z " data-engtype-2="District" data-id-0="205" data-id-1="5" data-id-2="46" data-iso="SVK" data-name-0="Slovakia" data-name-1="Prešov" data-name-2="Prešov" data-nl-name-2="" data-type-2="Okres" data-varname-2=""/><path d="M724.5,95.7L722.2,98.5L712.6,102.4L692.8,96.1L687.0,96.2L684.8,102.2L684.3,102.9L685.8,103.0L693.9,114.9L688.5,119.7L686.2,124.9L685.2,124.9L685.2,125.3L697.3,136.6L699.8,136.4L708.8,135.8L709.6,137.1L710.6,136.2L713.9,133.0L721.1,136.7L725.8,134.4L739.8,150.0L742.0,145.5L749.6,145.0L758.2,139.9L757.6,134.8L759.6,136.4L766.1,134.3L760.6,120.0L760.6,118.3L756.2,112.8L756.9,108.0L757.5,107.6L757.3,107.0L750.2,102.0L747.4,98.4L736.5,98.8L732.5,99.8L726.3,96.5L725.0,95.7L724.5,95.7Z " data-engtype-2="District" data-id-0="205" data-id-1="5" data-id-2="47" data-iso="SVK" data-name-0="Slovakia" data-name-1="Prešov" data-name-2="Sabinov" data-nl-name-2="" data-type-2="Okres" data-varname-2=""/><path d="M927.9,102.0L927.5,102.3L923.4,113.4L922.2,113.7L920.7,124.1L924.7,126.0L925.5,130.6L920.2,134.4L922.3,144.0L913.9,148.1L912.0,150.3L911.2,157.0L907.0,161.8L915.8,166.4L923.0,168.7L928.6,163.7L930.6,167.3L937.8,169.8L938.0,170.2L938.9,169.7L949.3,184.5L949.2,185.9L966.5,182.7L969.5,184.4L969.5,183.1L974.3,179.2L975.5,167.9L983.1,151.2L987.2,148.2L992.3,149.5L995.0,143.1L995.6,132.2L997.8,125.8L996.6,124.4L988.7,124.4L982.4,122.1L972.9,122.1L965.8,111.4L957.5,113.8L949.2,111.5L941.0,111.5L942.1,104.3L937.4,103.2L935.0,104.4L927.9,102.0L927.9,102.0Z " data-engtype-2="District" data-id-0="205" data-id-1="5" data-id-2="48" data-iso="SVK" data-name-0="Slovakia" data-name-1="Prešov" data-name-2="Snina" data-nl-name-2="" data-type-2="Okres" data-varname-2=""/><path d="M628.8,53.0L630.8,53.0L624.4,66.0L623.0,75.1L627.3,79.3L634.8,74.9L639.3,74.3L639.8,80.1L639.1,87.1L646.2,94.5L648.6,92.4L669.5,92.0L675.6,99.6L684.0,102.7L684.3,102.9L684.8,102.2L687.0,96.2L692.8,96.1L712.6,102.4L722.2,98.5L724.5,95.7L725.0,95.7L725.8,94.2L725.0,83.1L726.1,82.9L723.6,75.6L723.4,75.2L723.3,75.3L720.0,75.2L714.5,78.2L708.1,71.2L705.7,70.8L701.9,65.0L696.8,68.8L691.6,65.5L692.0,63.5L688.6,58.1L684.7,58.8L682.2,48.3L678.6,46.9L666.5,51.5L660.1,46.7L659.5,51.1L656.3,56.0L649.7,57.5L641.3,51.5L628.5,47.3L628.9,51.5L628.8,53.0Z " data-engtype-2="District" data-id-0="205" data-id-1="5" data-id-2="49" data-iso="SVK" data-name-0="Slovakia" data-name-1="Prešov" data-name-2="Stará Ľubovňa" data-nl-name-2="" data-type-2="Okres" data-varname-2=""/><path d="M861.5,59.4L859.6,58.2L859.1,58.2L859.1,57.6L859.0,57.5L858.2,56.0L855.2,64.9L858.8,71.3L856.2,74.0L854.3,72.5L849.0,63.2L845.5,65.4L845.7,68.9L841.8,73.0L836.3,74.5L837.0,77.4L832.7,89.7L831.0,91.2L831.2,100.6L828.9,115.5L830.9,117.5L828.8,122.8L828.3,123.1L829.1,123.9L833.6,129.2L834.2,134.4L841.6,140.9L843.2,141.1L849.6,132.1L854.7,126.4L854.6,119.1L857.0,117.7L857.1,117.1L861.2,112.0L860.8,104.0L861.9,102.3L862.8,101.7L863.6,101.1L868.8,97.2L871.9,87.1L871.3,84.6L874.1,81.8L876.9,73.1L872.4,70.6L863.3,59.4L862.2,59.4L861.5,59.4Z " data-engtype-2="District" data-id-0="205" data-id-1="5" data-id-2="50" data-iso="SVK" data-name-0="Slovakia" data-name-1="Prešov" data-name-2="Stropkov" data-nl-name-2="" data-type-2="Okres" data-varname-2=""/><path d="M802.7,45.4L802.7,45.4L801.5,47.8L791.1,56.7L799.3,63.2L797.7,67.9L801.6,71.9L803.6,71.3L806.0,78.0L811.9,82.1L811.4,87.3L813.6,89.5L815.8,96.8L809.9,103.9L821.7,117.9L821.9,119.5L813.2,118.3L811.4,115.1L806.7,113.0L803.6,116.4L797.6,119.8L794.1,123.3L794.1,124.2L794.8,124.4L799.8,125.5L802.6,128.7L809.1,134.1L810.1,135.2L810.6,135.1L816.2,134.6L820.0,136.3L826.5,132.0L825.6,122.3L827.3,121.1L828.3,123.1L828.8,122.8L830.9,117.5L828.9,115.5L831.2,100.6L831.0,91.2L832.7,89.7L837.0,77.4L836.3,74.5L841.8,73.0L845.7,68.9L845.5,65.4L849.0,63.2L854.3,72.5L856.2,74.0L858.8,71.3L855.2,64.9L858.2,56.0L859.0,57.5L859.1,57.6L859.1,57.0L855.5,49.9L850.8,46.2L850.8,43.9L838.9,42.8L838.9,39.7L835.3,35.7L829.5,39.3L817.7,40.5L817.7,44.1L810.4,41.1L802.9,45.4L802.7,45.4Z " data-engtype-2="District" data-id-0="205" data-id-1="5" data-id-2="51" data-iso="SVK" data-name-0="Slovakia" data-name-1="Prešov" data-name-2="Svidník" data-nl-name-2="" data-type-2="Okres" data-varname-2=""/><path d="M827.3,121.1L825.6,122.3L826.5,132.0L820.0,136.3L816.2,134.6L810.6,135.1L810.1,135.2L809.4,135.9L808.1,139.0L801.7,145.5L799.8,150.6L802.9,153.9L800.8,158.4L811.0,171.7L813.4,176.7L814.3,191.2L813.9,192.7L813.9,193.2L821.1,203.9L823.5,207.7L824.9,209.3L825.0,209.3L825.9,209.5L838.8,211.7L844.1,211.9L849.1,214.7L854.3,214.5L861.6,211.8L862.2,211.4L862.1,211.1L862.9,207.7L867.8,206.1L869.3,203.4L866.7,194.8L868.4,179.3L868.4,179.3L868.0,179.2L865.5,177.1L865.4,170.0L868.3,161.3L862.9,150.4L862.7,146.3L858.9,142.9L863.2,135.7L861.7,132.6L857.8,119.0L857.0,117.7L854.6,119.1L854.7,126.4L849.6,132.1L843.2,141.1L841.6,140.9L834.2,134.4L833.6,129.2L829.1,123.9L828.3,123.1L827.3,121.1Z " data-engtype-2="District" data-id-0="205" data-id-1="5" data-id-2="52" data-iso="SVK" data-name-0="Slovakia" data-name-1="Prešov" data-name-2="Vranov nad Toplou" data-nl-name-2="" data-type-2="Okres" data-varname-2=""/><path d="M207.1,224.4L206.4,229.7L207.4,232.7L207.5,233.0L207.8,233.1L213.0,236.4L226.1,239.3L231.0,244.3L232.0,249.0L241.3,256.5L241.4,256.5L241.6,256.2L241.9,250.2L249.5,250.9L258.2,246.7L262.7,251.4L266.1,245.2L265.5,241.0L271.4,238.0L272.0,238.1L272.0,238.0L269.3,233.1L269.9,228.7L280.5,224.9L282.1,216.0L280.4,214.6L277.3,206.6L278.6,199.2L277.1,196.7L267.0,186.7L264.9,186.2L264.0,185.8L263.5,186.5L260.6,189.4L247.5,190.4L243.6,198.8L244.5,212.1L243.8,216.0L240.9,218.4L237.0,216.2L227.9,220.7L228.6,223.7L223.4,225.9L220.0,223.1L211.2,221.8L207.3,224.0L207.2,224.0L207.1,224.4Z " data-engtype-2="District" data-id-0="205" data-id-1="6" data-id-2="53" data-iso="SVK" data-name-0="Slovakia" data-name-1="Trenciansky" data-name-2="Bánovce nad Bebravou" data-nl-name-2="" data-type-2="Okres" data-varname-2=""/><path d="M228.0,120.2L229.5,124.1L227.3,136.4L224.2,142.7L223.1,144.2L223.3,144.7L229.0,163.6L231.9,166.4L229.0,174.1L232.5,176.0L233.5,174.0L240.2,180.0L241.7,178.8L250.4,179.5L254.5,177.4L261.9,176.5L264.3,176.5L264.2,176.1L264.2,174.1L274.5,174.2L277.1,175.4L283.8,184.6L291.2,181.4L293.0,176.1L293.0,175.5L292.9,175.5L290.4,174.9L288.4,173.6L287.5,170.3L287.5,170.0L287.3,169.6L287.2,169.2L287.8,167.4L284.3,163.4L284.0,163.5L283.6,163.9L279.2,165.8L272.6,162.3L273.3,161.3L259.3,144.8L254.7,144.1L254.5,146.9L250.4,144.9L244.5,139.9L240.0,131.4L229.6,118.8L228.4,118.6L228.0,120.2Z " data-engtype-2="District" data-id-0="205" data-id-1="6" data-id-2="54" data-iso="SVK" data-name-0="Slovakia" data-name-1="Trenciansky" data-name-2="Ilava" data-nl-name-2="" data-type-2="Okres" data-varname-2=""/><path d="M139.9,194.5L137.1,197.8L123.2,205.9L120.8,205.1L114.8,196.5L108.4,198.0L105.1,200.1L103.2,200.4L100.4,205.6L96.0,208.9L94.8,210.6L94.8,211.4L94.8,211.6L111.9,218.5L115.3,222.4L112.0,228.4L110.9,234.4L112.8,238.0L124.1,253.1L124.1,253.2L124.2,253.2L130.2,251.4L132.7,251.1L133.6,250.7L133.9,250.6L134.0,250.6L139.2,245.5L141.4,245.1L154.1,242.0L154.1,242.0L154.2,242.0L155.7,238.4L153.1,230.3L156.1,225.7L142.1,213.7L139.8,200.6L140.5,197.1L140.3,194.4L139.9,194.5Z " data-engtype-2="District" data-id-0="205" data-id-1="6" data-id-2="55" data-iso="SVK" data-name-0="Slovakia" data-name-1="Trenciansky" data-name-2="Myjava" data-nl-name-2="" data-type-2="Okres" data-varname-2=""/><path d="M178.2,176.4L169.6,177.8L166.7,179.8L155.1,193.3L142.8,193.6L140.3,194.4L140.5,197.1L139.8,200.6L142.1,213.7L156.1,225.7L153.1,230.3L155.7,238.4L154.2,242.0L154.1,242.0L154.2,242.0L164.8,249.9L172.4,250.8L176.7,248.8L178.2,252.6L185.2,253.8L200.7,259.4L200.8,259.5L200.9,259.4L209.7,256.6L207.1,249.0L205.7,240.8L207.4,233.0L207.5,233.0L207.4,232.7L206.4,229.7L207.1,224.4L207.2,224.0L206.9,223.9L200.6,222.3L198.5,212.8L190.6,206.5L182.3,206.5L184.1,201.8L177.4,188.9L176.9,185.6L178.8,176.4L178.8,176.4L178.2,176.4Z " data-engtype-2="District" data-id-0="205" data-id-1="6" data-id-2="56" data-iso="SVK" data-name-0="Slovakia" data-name-1="Trenciansky" data-name-2="Nové Mesto nad Váhom" data-nl-name-2="" data-type-2="Okres" data-varname-2=""/><path d="M241.3,256.7L247.4,260.2L246.1,266.2L243.0,269.3L245.2,276.2L250.2,276.6L256.5,285.0L258.3,291.3L258.4,291.4L258.4,291.4L265.2,293.6L267.6,289.2L270.0,290.9L280.7,282.4L287.1,279.3L287.1,279.3L287.3,279.1L288.0,277.8L289.4,276.5L290.7,274.6L290.7,274.4L290.6,274.1L285.9,263.6L285.9,260.6L281.8,255.0L272.1,238.4L272.0,238.1L271.4,238.0L265.5,241.0L266.1,245.2L262.7,251.4L258.2,246.7L249.5,250.9L241.9,250.2L241.6,256.2L241.4,256.5L241.3,256.7Z " data-engtype-2="District" data-id-0="205" data-id-1="6" data-id-2="57" data-iso="SVK" data-name-0="Slovakia" data-name-1="Trenciansky" data-name-2="Partizánske" data-nl-name-2="" data-type-2="Okres" data-varname-2=""/><path d="M272.5,74.4L268.5,74.6L268.1,74.6L267.2,73.9L267.0,74.0L263.6,75.9L251.1,79.3L249.6,79.6L249.7,80.5L250.2,86.8L257.0,100.4L260.3,100.3L263.4,104.4L266.3,112.9L276.3,128.8L274.1,131.8L275.6,142.3L274.3,148.5L283.4,163.2L284.0,163.5L284.3,163.4L287.8,167.4L287.2,169.2L287.3,169.6L287.5,170.0L287.8,169.7L292.1,167.2L298.4,161.4L306.0,159.4L311.0,151.8L313.0,143.3L306.5,136.6L303.3,134.6L308.4,128.0L308.4,127.7L308.4,127.2L308.4,126.8L308.3,126.4L308.3,126.2L308.3,126.2L304.3,116.7L294.4,110.0L290.5,108.5L286.4,102.5L281.9,88.6L277.4,82.5L272.8,74.3L272.5,74.3L272.5,74.4Z " data-engtype-2="District" data-id-0="205" data-id-1="6" data-id-2="58" data-iso="SVK" data-name-0="Slovakia" data-name-1="Trenciansky" data-name-2="Považská Bystrica" data-nl-name-2="" data-type-2="Okres" data-varname-2=""/><path d="M316.2,170.0L313.9,169.9L292.9,175.2L293.0,175.5L293.0,176.1L291.2,181.4L283.8,184.6L277.1,175.4L274.5,174.2L264.2,174.1L264.2,176.1L264.3,176.5L264.2,177.6L263.9,179.4L263.9,181.3L264.0,182.5L264.0,185.8L264.9,186.2L267.0,186.7L277.1,196.7L278.6,199.2L277.3,206.6L280.4,214.6L282.1,216.0L280.5,224.9L269.9,228.7L269.3,233.1L272.0,238.0L272.0,238.1L272.1,238.4L281.8,255.0L285.9,260.6L285.9,263.6L290.6,274.1L290.7,274.4L290.8,274.7L291.9,273.4L301.2,272.7L307.6,273.1L313.0,265.0L316.8,257.3L316.9,257.1L317.2,256.5L319.6,254.8L328.3,258.0L332.0,256.5L335.6,246.3L342.6,240.9L348.7,228.6L348.8,227.0L348.8,226.9L348.6,226.9L340.2,214.1L339.8,212.4L327.8,198.7L326.5,195.2L327.9,189.3L326.3,185.4L329.6,177.4L329.8,176.6L330.2,175.9L330.4,174.0L329.6,173.5L317.1,170.0L316.5,170.0L316.2,170.0Z " data-engtype-2="District" data-id-0="205" data-id-1="6" data-id-2="59" data-iso="SVK" data-name-0="Slovakia" data-name-1="Trenciansky" data-name-2="Prievidza" data-nl-name-2="" data-type-2="Okres" data-varname-2=""/><path d="M245.7,80.4L240.5,82.6L237.1,86.0L235.5,90.8L228.6,118.0L228.4,118.6L229.6,118.8L240.0,131.4L244.5,139.9L250.4,144.9L254.5,146.9L254.7,144.1L259.3,144.8L273.3,161.3L272.6,162.3L279.2,165.8L283.6,163.9L284.0,163.5L283.4,163.2L274.3,148.5L275.6,142.3L274.1,131.8L276.3,128.8L266.3,112.9L263.4,104.4L260.3,100.3L257.0,100.4L250.2,86.8L249.7,80.5L249.6,79.6L245.7,80.4Z " data-engtype-2="District" data-id-0="205" data-id-1="6" data-id-2="60" data-iso="SVK" data-name-0="Slovakia" data-name-1="Trenciansky" data-name-2="Púchov" data-nl-name-2="" data-type-2="Okres" data-varname-2=""/><path d="M222.6,144.6L211.1,149.7L195.4,152.1L189.5,159.9L187.6,173.9L182.1,176.4L178.8,176.4L178.8,176.4L176.9,185.6L177.4,188.9L184.1,201.8L182.3,206.5L190.6,206.5L198.5,212.8L200.6,222.3L206.9,223.9L207.2,224.0L207.3,224.0L211.2,221.8L220.0,223.1L223.4,225.9L228.6,223.7L227.9,220.7L237.0,216.2L240.9,218.4L243.8,216.0L244.5,212.1L243.6,198.8L247.5,190.4L260.6,189.4L263.5,186.5L264.0,185.8L264.0,182.5L263.9,181.3L263.9,179.4L264.2,177.6L264.3,176.5L261.9,176.5L254.5,177.4L250.4,179.5L241.7,178.8L240.2,180.0L233.5,174.0L232.5,176.0L229.0,174.1L231.9,166.4L229.0,163.6L223.3,144.7L223.1,144.2L222.6,144.6Z " data-engtype-2="District" data-id-0="205" data-id-1="6" data-id-2="61" data-iso="SVK" data-name-0="Slovakia" data-name-1="Trenciansky" data-name-2="Trenčín" data-nl-name-2="" data-type-2="Okres" data-varname-2=""/><path d="M71.4,414.2L72.6,418.1L77.4,419.4L82.0,418.9L88.3,421.3L91.7,426.4L101.8,437.7L105.8,447.5L107.8,449.7L116.7,454.7L118.7,454.7L122.4,460.5L125.9,468.4L131.0,466.7L135.8,469.4L148.5,481.1L149.3,482.1L154.6,476.7L154.2,471.5L160.8,470.6L169.8,454.3L179.2,449.3L182.1,433.6L181.9,433.4L181.4,433.1L171.5,421.6L168.2,419.2L155.4,406.0L149.6,404.8L144.5,398.6L136.3,394.8L135.1,391.4L132.7,395.0L128.5,390.7L125.4,392.0L122.5,388.2L115.2,387.3L109.1,380.7L109.0,380.6L108.9,380.6L103.2,381.2L93.6,377.6L93.4,384.1L81.3,386.7L83.4,398.1L76.9,404.5L78.1,407.7L71.0,413.6L71.4,414.2Z " data-engtype-2="District" data-id-0="205" data-id-1="7" data-id-2="62" data-iso="SVK" data-name-0="Slovakia" data-name-1="Trnavský" data-name-2="Dunajská Streda" data-nl-name-2="" data-type-2="Okres" data-varname-2=""/><path d="M178.6,330.1L174.0,327.7L170.9,333.1L164.0,332.4L162.0,330.8L161.8,331.8L161.1,335.9L158.2,335.5L151.2,338.9L149.8,345.7L144.3,350.5L135.7,349.2L127.9,356.4L117.4,345.9L116.0,346.0L115.8,346.0L115.8,346.2L114.6,350.6L112.1,352.5L111.4,356.7L120.0,363.7L118.1,366.7L118.8,372.8L109.0,380.6L109.0,380.6L109.1,380.7L115.2,387.3L122.5,388.2L125.4,392.0L128.5,390.7L132.7,395.0L135.1,391.4L136.3,394.8L144.5,398.6L149.6,404.8L155.4,406.0L168.2,419.2L171.5,421.6L181.4,433.1L181.9,433.4L182.1,432.9L182.9,429.5L183.0,428.5L182.6,425.7L182.6,425.7L182.6,425.6L183.2,415.2L181.3,409.0L178.9,408.6L176.0,400.9L170.0,403.0L169.1,399.9L171.8,396.2L171.7,391.5L159.8,380.8L163.4,378.2L169.1,380.1L172.1,378.4L169.0,371.7L175.0,372.5L182.0,370.0L184.1,366.6L176.1,355.5L180.7,347.9L180.6,347.8L180.5,347.8L177.5,337.1L177.9,333.3L179.2,330.1L179.1,329.9L178.6,330.1Z " data-engtype-2="District" data-id-0="205" data-id-1="7" data-id-2="63" data-iso="SVK" data-name-0="Slovakia" data-name-1="Trnavský" data-name-2="Galanta" data-nl-name-2="" data-type-2="Okres" data-varname-2=""/><path d="M178.5,283.1L173.1,285.9L172.9,289.1L166.1,284.6L165.0,290.9L160.0,296.2L158.1,296.1L149.0,289.7L148.8,289.7L148.7,290.1L150.4,305.0L155.7,321.7L152.6,323.1L152.9,325.9L161.0,330.3L162.0,330.8L164.0,332.4L170.9,333.1L174.0,327.7L178.6,330.1L179.1,329.9L179.1,329.7L178.7,328.1L184.3,320.9L185.5,316.4L197.1,300.4L197.3,299.9L197.1,299.3L192.4,294.3L185.1,288.2L178.9,282.8L178.9,282.7L178.5,283.1Z " data-engtype-2="District" data-id-0="205" data-id-1="7" data-id-2="64" data-iso="SVK" data-name-0="Slovakia" data-name-1="Trnavský" data-name-2="Hlohovec" data-nl-name-2="" data-type-2="Okres" data-varname-2=""/><path d="M133.7,250.7L129.1,263.9L129.5,267.7L132.8,267.7L144.3,285.6L148.0,288.8L148.8,289.7L149.0,289.7L158.1,296.1L160.0,296.2L165.0,290.9L166.1,284.6L172.9,289.1L173.1,285.9L178.5,283.1L178.9,282.7L178.9,282.6L186.0,265.5L198.6,264.7L200.8,259.5L200.8,259.5L200.7,259.4L185.2,253.8L178.2,252.6L176.7,248.8L172.4,250.8L164.8,249.9L154.2,242.0L154.1,242.0L154.1,242.0L141.4,245.1L139.2,245.5L134.0,250.6L133.9,250.6L133.7,250.7Z " data-engtype-2="District" data-id-0="205" data-id-1="7" data-id-2="65" data-iso="SVK" data-name-0="Slovakia" data-name-1="Trnavský" data-name-2="Piešťany" data-nl-name-2="" data-type-2="Okres" data-varname-2=""/><path d="M94.7,212.1L91.7,218.9L86.3,222.9L76.6,224.3L76.9,228.7L67.8,229.3L59.0,235.7L57.0,231.4L48.6,232.4L41.1,234.4L35.6,237.5L28.5,235.0L28.5,235.0L27.8,235.6L24.4,249.2L20.8,253.2L21.8,261.5L20.7,262.8L22.4,271.5L23.1,272.1L30.7,269.4L37.3,268.9L36.3,265.7L43.6,270.2L50.4,270.9L60.5,269.5L72.7,265.9L72.7,264.2L81.3,255.1L92.2,247.5L93.8,248.6L95.3,256.3L92.8,259.4L85.3,264.8L77.2,272.3L90.7,284.7L90.7,284.7L91.0,284.8L92.8,278.3L98.1,270.9L112.4,270.0L121.9,255.7L124.6,253.8L124.1,253.2L124.1,253.1L112.8,238.0L110.9,234.4L112.0,228.4L115.3,222.4L111.9,218.5L94.8,211.6L94.8,211.4L94.7,212.1Z " data-engtype-2="District" data-id-0="205" data-id-1="7" data-id-2="66" data-iso="SVK" data-name-0="Slovakia" data-name-1="Trnavský" data-name-2="Senica" data-nl-name-2="" data-type-2="Okres" data-varname-2=""/><path d="M101.4,200.8L96.9,200.2L73.0,186.8L68.9,185.5L56.2,194.5L52.2,199.4L49.7,207.3L37.7,218.3L35.6,225.1L32.8,228.3L33.0,232.2L28.8,234.7L28.5,235.0L28.5,235.0L35.6,237.5L41.1,234.4L48.6,232.4L57.0,231.4L59.0,235.7L67.8,229.3L76.9,228.7L76.6,224.3L86.3,222.9L91.7,218.9L94.7,212.1L94.8,211.4L94.8,210.6L96.0,208.9L100.4,205.6L103.2,200.4L101.4,200.8Z " data-engtype-2="District" data-id-0="205" data-id-1="7" data-id-2="67" data-iso="SVK" data-name-0="Slovakia" data-name-1="Trnavský" data-name-2="Skalica" data-nl-name-2="" data-type-2="Okres" data-varname-2=""/><path d="M133.6,250.7L132.7,251.1L130.2,251.4L124.2,253.2L124.1,253.2L124.6,253.8L121.9,255.7L112.4,270.0L98.1,270.9L92.8,278.3L91.0,284.8L90.7,284.7L90.6,284.9L82.1,292.0L82.4,295.2L84.0,297.5L85.2,298.4L85.5,298.5L95.7,301.4L102.6,312.3L106.1,321.7L111.2,323.2L107.9,336.1L109.5,336.9L111.2,337.4L111.5,337.6L113.2,341.3L114.8,343.8L115.6,345.5L115.8,346.0L116.0,346.0L117.4,345.9L127.9,356.4L135.7,349.2L144.3,350.5L149.8,345.7L151.2,338.9L158.2,335.5L161.1,335.9L161.8,331.8L162.0,330.8L161.0,330.3L152.9,325.9L152.6,323.1L155.7,321.7L150.4,305.0L148.7,290.1L148.8,289.7L148.0,288.8L144.3,285.6L132.8,267.7L129.5,267.7L129.1,263.9L133.7,250.7L133.9,250.6L133.6,250.7Z " data-engtype-2="District" data-id-0="205" data-id-1="7" data-id-2="68" data-iso="SVK" data-name-0="Slovakia" data-name-1="Trnavský" data-name-2="Trnava" data-nl-name-2="" data-type-2="Okres" data-varname-2=""/><path d="M313.0,64.7L296.4,66.1L289.1,69.9L272.7,73.9L272.5,74.3L272.8,74.3L277.4,82.5L281.9,88.6L286.4,102.5L290.5,108.5L294.4,110.0L304.3,116.7L308.3,126.2L308.3,126.2L308.4,126.4L308.5,126.8L308.5,127.1L308.5,127.3L308.4,127.7L308.4,128.4L317.2,125.9L315.2,121.1L312.8,100.3L314.4,95.7L317.7,95.3L318.1,90.6L313.2,84.3L311.2,68.4L312.7,65.7L313.3,65.1L313.0,64.7Z " data-engtype-2="District" data-id-0="205" data-id-1="8" data-id-2="69" data-iso="SVK" data-name-0="Slovakia" data-name-1="Žilinský" data-name-2="Bytca" data-nl-name-2="" data-type-2="Okres" data-varname-2=""/><path d="M267.2,73.9L268.1,74.6L268.5,74.6L272.5,74.4L272.5,74.3L272.7,73.9L289.1,69.9L296.4,66.1L313.0,64.7L313.3,65.1L313.6,65.2L317.0,65.1L319.3,62.0L325.5,67.2L326.0,67.5L326.1,67.1L331.9,60.9L333.2,61.7L338.5,56.3L342.7,58.3L347.8,64.3L356.3,65.1L364.5,71.0L365.0,73.3L365.2,73.6L366.2,74.0L368.8,78.3L377.0,75.1L381.9,77.5L390.0,78.8L391.8,80.1L403.5,77.6L404.2,77.9L404.3,77.9L404.5,77.9L406.1,76.9L409.4,73.5L409.9,72.8L409.0,72.5L408.7,65.7L402.3,61.9L404.4,53.9L404.5,52.9L404.2,52.9L399.5,49.4L391.2,50.7L388.9,55.5L378.2,53.2L380.5,44.8L376.9,37.7L376.9,28.2L374.4,22.2L355.1,20.5L350.8,21.8L339.6,28.3L325.7,25.6L317.4,26.1L306.7,23.5L302.9,28.5L303.3,31.8L296.0,45.0L292.7,48.6L279.0,55.0L279.6,57.7L275.5,67.6L267.7,73.7L267.2,73.9Z " data-engtype-2="District" data-id-0="205" data-id-1="8" data-id-2="70" data-iso="SVK" data-name-0="Slovakia" data-name-1="Žilinský" data-name-2="Cadca" data-nl-name-2="" data-type-2="Okres" data-varname-2=""/><path d="M409.4,73.5L406.1,76.9L404.5,77.9L404.3,77.9L404.2,77.9L403.7,78.4L400.3,89.2L400.2,101.6L396.7,102.8L396.5,102.9L396.2,103.2L396.4,111.6L399.1,122.0L406.9,123.7L407.2,123.9L407.4,123.5L410.9,116.4L423.2,118.2L427.3,116.6L431.1,119.7L440.7,120.3L443.5,116.5L447.7,113.9L456.6,114.3L456.5,114.6L456.7,115.0L464.8,113.5L465.8,108.8L471.2,104.2L473.8,98.3L476.8,96.7L477.3,96.6L476.6,95.6L469.9,87.4L468.2,86.1L455.5,76.6L454.9,76.2L454.2,77.1L449.1,82.3L447.5,80.4L433.5,79.3L428.7,81.3L425.6,85.9L424.3,76.8L420.3,75.1L410.4,73.1L409.9,72.8L409.4,73.5Z " data-engtype-2="District" data-id-0="205" data-id-1="8" data-id-2="71" data-iso="SVK" data-name-0="Slovakia" data-name-1="Žilinský" data-name-2="Dolný Kubín" data-nl-name-2="" data-type-2="Okres" data-varname-2=""/><path d="M365.0,73.3L364.5,71.0L356.3,65.1L347.8,64.3L342.7,58.3L338.5,56.3L333.2,61.7L331.9,60.9L326.1,67.1L326.0,67.5L326.2,68.1L334.2,87.3L337.5,87.9L340.3,85.9L346.2,92.4L349.6,88.0L356.8,88.7L360.9,92.3L363.3,92.1L368.8,81.6L364.3,74.6L365.2,73.6L365.0,73.3Z " data-engtype-2="District" data-id-0="205" data-id-1="8" data-id-2="72" data-iso="SVK" data-name-0="Slovakia" data-name-1="Žilinský" data-name-2="Kysucké Nové Mesto" data-nl-name-2="" data-type-2="Okres" data-varname-2=""/><path d="M531.1,107.9L526.4,109.1L521.6,107.9L515.7,106.8L514.5,106.8L514.7,107.0L509.7,108.7L506.0,108.2L501.5,104.0L487.3,102.5L481.6,97.2L478.2,96.7L477.3,96.6L476.8,96.7L473.8,98.3L471.2,104.2L465.8,108.8L464.8,113.5L456.7,115.0L456.5,114.6L456.2,114.7L458.1,124.4L461.6,127.0L461.8,131.5L453.6,140.6L455.1,145.0L446.1,157.9L444.6,162.0L448.1,179.3L448.2,180.0L448.2,180.1L451.9,178.3L485.2,175.2L491.4,177.6L498.0,183.3L512.5,184.4L521.6,179.8L529.0,180.3L546.7,179.5L549.3,177.3L553.7,180.3L553.8,180.4L553.8,180.3L563.9,176.9L564.6,173.2L559.2,172.4L553.5,159.4L549.7,154.5L556.7,152.3L560.6,130.9L560.8,127.5L549.5,130.3L545.4,128.8L543.2,123.4L537.7,124.5L536.4,116.1L531.1,107.9Z " data-engtype-2="District" data-id-0="205" data-id-1="8" data-id-2="73" data-iso="SVK" data-name-0="Slovakia" data-name-1="Žilinský" data-name-2="Liptovský Mikuláš" data-nl-name-2="" data-type-2="Okres" data-varname-2=""/><path d="M395.6,103.0L392.0,109.6L383.8,108.7L378.1,110.7L363.0,119.8L357.2,119.1L354.2,123.5L350.6,137.7L347.2,141.3L337.7,145.8L333.0,161.4L326.2,160.3L320.0,163.3L317.2,169.3L316.5,170.0L317.1,170.0L329.6,173.5L330.4,174.0L330.2,175.9L329.8,176.6L330.3,176.8L341.1,170.2L349.5,173.7L351.7,173.1L356.9,177.0L363.5,178.4L371.4,183.0L374.2,189.5L380.3,193.8L385.5,190.9L386.5,191.2L386.7,191.0L389.5,189.9L390.8,190.7L394.9,192.6L395.3,192.8L395.5,192.4L397.0,183.8L405.4,173.2L399.9,167.0L403.1,144.8L402.6,132.9L406.7,126.2L407.2,123.9L406.9,123.7L399.1,122.0L396.4,111.6L396.2,103.2L396.5,102.9L395.6,103.0Z " data-engtype-2="District" data-id-0="205" data-id-1="8" data-id-2="74" data-iso="SVK" data-name-0="Slovakia" data-name-1="Žilinský" data-name-2="Martin" data-nl-name-2="" data-type-2="Okres" data-varname-2=""/><path d="M404.5,52.9L404.4,53.9L402.3,61.9L408.7,65.7L409.0,72.5L409.9,72.8L410.4,73.1L420.3,75.1L424.3,76.8L425.6,85.9L428.7,81.3L433.5,79.3L447.5,80.4L449.1,82.3L454.2,77.1L454.9,76.2L456.4,74.7L461.9,68.1L465.9,65.8L481.2,49.7L484.1,42.7L483.5,39.4L484.3,37.9L483.3,38.0L478.5,29.7L474.8,13.0L465.3,3.6L465.3,2.4L455.8,1.3L452.3,7.2L446.4,9.7L446.5,16.8L434.7,16.9L434.2,18.1L424.1,24.2L424.1,27.7L420.7,39.7L416.0,42.1L416.0,50.4L405.4,52.9L404.5,52.9Z " data-engtype-2="District" data-id-0="205" data-id-1="8" data-id-2="75" data-iso="SVK" data-name-0="Slovakia" data-name-1="Žilinský" data-name-2="Námestovo" data-nl-name-2="" data-type-2="Okres" data-varname-2=""/><path d="M456.6,114.3L447.7,113.9L443.5,116.5L440.7,120.3L431.1,119.7L427.3,116.6L423.2,118.2L410.9,116.4L407.4,123.5L407.2,123.9L406.7,126.2L402.6,132.9L403.1,144.8L399.9,167.0L405.4,173.2L397.0,183.8L395.5,192.4L395.3,192.8L395.5,192.9L397.2,193.1L416.9,188.3L423.4,185.1L426.6,189.9L425.7,195.5L430.2,196.9L434.4,195.8L440.7,186.8L441.8,186.2L442.4,185.7L444.8,183.6L445.3,183.2L448.1,180.1L448.2,180.0L448.1,179.3L444.6,162.0L446.1,157.9L455.1,145.0L453.6,140.6L461.8,131.5L461.6,127.0L458.1,124.4L456.2,114.7L456.5,114.6L456.6,114.3Z " data-engtype-2="District" data-id-0="205" data-id-1="8" data-id-2="76" data-iso="SVK" data-name-0="Slovakia" data-name-1="Žilinský" data-name-2="Ružomberok" data-nl-name-2="" data-type-2="Okres" data-varname-2=""/><path d="M329.6,177.4L326.3,185.4L327.9,189.3L326.5,195.2L327.8,198.7L339.8,212.4L340.2,214.1L348.6,226.9L348.8,226.9L348.8,226.9L355.4,222.4L360.3,221.4L362.2,225.3L380.0,227.7L380.6,227.7L380.7,227.6L382.6,214.0L379.0,202.6L383.8,193.8L386.1,191.8L386.5,191.2L385.5,190.9L380.3,193.8L374.2,189.5L371.4,183.0L363.5,178.4L356.9,177.0L351.7,173.1L349.5,173.7L341.1,170.2L330.3,176.8L329.8,176.6L329.6,177.4Z " data-engtype-2="District" data-id-0="205" data-id-1="8" data-id-2="77" data-iso="SVK" data-name-0="Slovakia" data-name-1="Žilinský" data-name-2="Turcianske Teplice" data-nl-name-2="" data-type-2="Okres" data-varname-2=""/><path d="M484.3,37.9L483.5,39.4L484.1,42.7L481.2,49.7L465.9,65.8L461.9,68.1L456.4,74.7L454.9,76.2L455.5,76.6L468.2,86.1L469.9,87.4L476.6,95.6L477.3,96.6L478.2,96.7L481.6,97.2L487.3,102.5L501.5,104.0L506.0,108.2L509.7,108.7L514.7,107.0L514.5,106.8L514.5,105.6L515.6,96.1L523.8,87.7L522.6,82.9L520.2,82.9L521.4,73.4L518.8,53.2L511.7,52.0L505.9,58.0L503.5,54.5L491.7,53.4L492.8,41.5L490.4,41.5L484.5,37.9L484.3,37.9Z " data-engtype-2="District" data-id-0="205" data-id-1="8" data-id-2="78" data-iso="SVK" data-name-0="Slovakia" data-name-1="Žilinský" data-name-2="Tvrdošín" data-nl-name-2="" data-type-2="Okres" data-varname-2=""/><path d="M308.5,127.3L308.5,127.1L308.5,126.8L308.4,126.4L308.3,126.2L308.3,126.4L308.4,126.8L308.4,127.2L308.4,127.7L308.5,127.3Z M308.4,128.0L303.3,134.6L306.5,136.6L313.0,143.3L311.0,151.8L306.0,159.4L298.4,161.4L292.1,167.2L287.8,169.7L287.5,170.0L287.5,170.3L288.4,173.6L290.4,174.9L292.9,175.5L293.0,175.5L292.9,175.2L313.9,169.9L316.2,170.0L316.5,170.0L317.2,169.3L320.0,163.3L326.2,160.3L333.0,161.4L337.7,145.8L347.2,141.3L350.6,137.7L354.2,123.5L357.2,119.1L363.0,119.8L378.1,110.7L383.8,108.7L392.0,109.6L395.6,103.0L396.5,102.9L396.7,102.8L400.2,101.6L400.3,89.2L403.7,78.4L404.2,77.9L403.5,77.6L391.8,80.1L390.0,78.8L381.9,77.5L377.0,75.1L368.8,78.3L366.2,74.0L365.2,73.6L364.3,74.6L368.8,81.6L363.3,92.1L360.9,92.3L356.8,88.7L349.6,88.0L346.2,92.4L340.3,85.9L337.5,87.9L334.2,87.3L326.2,68.1L326.0,67.5L325.5,67.2L319.3,62.0L317.0,65.1L313.6,65.2L313.3,65.1L312.7,65.7L311.2,68.4L313.2,84.3L318.1,90.6L317.7,95.3L314.4,95.7L312.8,100.3L315.2,121.1L317.2,125.9L308.4,128.4L308.4,127.7L308.4,128.0Z " data-engtype-2="District" data-id-0="205" data-id-1="8" data-id-2="79" data-iso="SVK" data-name-0="Slovakia" data-name-1="Žilinský" data-name-2="Žilina" data-nl-name-2="" data-type-2="Okres" data-varname-2=""/></g></svg>
